<?xml version="1.0" encoding="UTF-8"?>
<svg width="1920px" height="1280px" viewBox="0 0 1920 1280" version="1.1" xmlns="http://www.w3.org/2000/svg" xmlns:xlink="http://www.w3.org/1999/xlink">
    <title>python-kits</title>
    <defs>
        <polygon id="path-1" points="16.5 0 33 11.6666667 29.7 11.6666667 29.7 25 21.45 25 21.45 16.6666667 11.55 16.6666667 11.55 25 3.3 25 3.3 11.6666667 0 11.6666667"></polygon>
        <filter x="-3.0%" y="-4.0%" width="106.1%" height="108.0%" filterUnits="objectBoundingBox" id="filter-2">
            <feGaussianBlur stdDeviation="0.5" in="SourceAlpha" result="shadowBlurInner1"></feGaussianBlur>
            <feOffset dx="1" dy="1" in="shadowBlurInner1" result="shadowOffsetInner1"></feOffset>
            <feComposite in="shadowOffsetInner1" in2="SourceAlpha" operator="arithmetic" k2="-1" k3="1" result="shadowInnerInner1"></feComposite>
            <feColorMatrix values="0 0 0 0 0   0 0 0 0 0   0 0 0 0 0  0 0 0 0.05 0" type="matrix" in="shadowInnerInner1"></feColorMatrix>
        </filter>
        <filter color-interpolation-filters="auto" id="filter-3">
            <feColorMatrix in="SourceGraphic" type="matrix" values="0 0 0 0 0.968627 0 0 0 0 0.576471 0 0 0 0 0.117647 0 0 0 1.000000 0"></feColorMatrix>
        </filter>
        <filter color-interpolation-filters="auto" id="filter-4">
            <feColorMatrix in="SourceGraphic" type="matrix" values="0 0 0 0 0.968627 0 0 0 0 0.576471 0 0 0 0 0.117647 0 0 0 1.000000 0"></feColorMatrix>
        </filter>
        <filter color-interpolation-filters="auto" id="filter-5">
            <feColorMatrix in="SourceGraphic" type="matrix" values="0 0 0 0 0.968627 0 0 0 0 0.576471 0 0 0 0 0.117647 0 0 0 1.000000 0"></feColorMatrix>
        </filter>
        <filter color-interpolation-filters="auto" id="filter-6">
            <feColorMatrix in="SourceGraphic" type="matrix" values="0 0 0 0 0.968627 0 0 0 0 0.576471 0 0 0 0 0.117647 0 0 0 1.000000 0"></feColorMatrix>
        </filter>
        <filter color-interpolation-filters="auto" id="filter-7">
            <feColorMatrix in="SourceGraphic" type="matrix" values="0 0 0 0 0.968627 0 0 0 0 0.576471 0 0 0 0 0.117647 0 0 0 1.000000 0"></feColorMatrix>
        </filter>
        <filter color-interpolation-filters="auto" id="filter-8">
            <feColorMatrix in="SourceGraphic" type="matrix" values="0 0 0 0 0.968627 0 0 0 0 0.576471 0 0 0 0 0.117647 0 0 0 1.000000 0"></feColorMatrix>
        </filter>
        <filter color-interpolation-filters="auto" id="filter-9">
            <feColorMatrix in="SourceGraphic" type="matrix" values="0 0 0 0 0.968627 0 0 0 0 0.576471 0 0 0 0 0.117647 0 0 0 1.000000 0"></feColorMatrix>
        </filter>
        <filter color-interpolation-filters="auto" id="filter-10">
            <feColorMatrix in="SourceGraphic" type="matrix" values="0 0 0 0 0.968627 0 0 0 0 0.576471 0 0 0 0 0.117647 0 0 0 1.000000 0"></feColorMatrix>
        </filter>
        <filter color-interpolation-filters="auto" id="filter-11">
            <feColorMatrix in="SourceGraphic" type="matrix" values="0 0 0 0 0.968627 0 0 0 0 0.576471 0 0 0 0 0.117647 0 0 0 1.000000 0"></feColorMatrix>
        </filter>
        <filter color-interpolation-filters="auto" id="filter-12">
            <feColorMatrix in="SourceGraphic" type="matrix" values="0 0 0 0 0.968627 0 0 0 0 0.576471 0 0 0 0 0.117647 0 0 0 1.000000 0"></feColorMatrix>
        </filter>
        <filter color-interpolation-filters="auto" id="filter-13">
            <feColorMatrix in="SourceGraphic" type="matrix" values="0 0 0 0 0.968627 0 0 0 0 0.576471 0 0 0 0 0.117647 0 0 0 1.000000 0"></feColorMatrix>
        </filter>
    </defs>
    <g id="python-kits" stroke="none" stroke-width="1" fill="none" fill-rule="evenodd">
        <rect fill="#FFFFFF" x="0" y="0" width="1920" height="1280"></rect>
        <g id="trees-icon-label" transform="translate(581.000000, 217.500000)">
            <path d="M146.76,52.5442857 C147.6,52.5442857 148.2,52.4242857 148.68,52.1842857 L148.24,49.7042857 C147.92,49.7842857 147.76,49.7842857 147.56,49.7842857 C147.04,49.7842857 146.6,49.4242857 146.6,48.3842857 L146.6,23.5842857 L143.28,23.5842857 L143.28,48.1442857 C143.28,50.9442857 144.28,52.5442857 146.76,52.5442857 Z M155.16,28.6242857 C156.44,28.6242857 157.36,27.7842857 157.36,26.4642857 C157.36,25.1842857 156.44,24.3042857 155.16,24.3042857 C153.88,24.3042857 152.96,25.1842857 152.96,26.4642857 C152.96,27.7842857 153.88,28.6242857 155.16,28.6242857 Z M156.8,52.0642857 L156.8,32.6242857 L153.48,32.6242857 L153.48,52.0642857 L156.8,52.0642857 Z M171.96,52.5442857 C176.4,52.5442857 180.4,48.6642857 180.4,42.0242857 C180.4,36.0242857 177.68,32.1442857 172.68,32.1442857 C170.52,32.1442857 168.36,33.3042857 166.56,34.8242857 L166.68,31.3442857 L166.68,23.5842857 L163.36,23.5842857 L163.36,52.0642857 L166,52.0642857 L166.32,50.0642857 L166.44,50.0642857 C168.16,51.6242857 170.16,52.5442857 171.96,52.5442857 Z M171.4,49.7442857 C170.12,49.7442857 168.36,49.2242857 166.68,47.7442857 L166.68,37.5842857 C168.52,35.8242857 170.2,34.9442857 171.84,34.9442857 C175.48,34.9442857 176.96,37.7842857 176.96,42.0642857 C176.96,46.8642857 174.6,49.7442857 171.4,49.7442857 Z M190.6,52.5442857 C195.2,52.5442857 197.72,49.9042857 197.72,46.7442857 C197.72,43.2242857 194.8,41.9042857 191.76,40.8242857 C189.32,39.9842857 187.64,39.2642857 187.64,37.5042857 C187.64,36.0642857 188.72,34.7042857 191.2,34.7042857 C192.92,34.7042857 194.32,35.2642857 195.68,36.2642857 L197.2,34.3442857 C195.68,33.0642857 193.6,32.1442857 191.16,32.1442857 C186.92,32.1442857 184.44,34.5442857 184.44,37.6642857 C184.44,40.8642857 187.24,42.2642857 190.16,43.3042857 L190.598839,43.4651509 C192.6384,44.2214413 194.52,45.077619 194.52,46.9442857 C194.52,48.6242857 193.28,49.9442857 190.72,49.9442857 C188.32,49.9442857 186.56,49.2242857 184.88,47.8242857 L183.36,49.7442857 C185.16,51.5042857 187.76,52.5442857 190.6,52.5442857 Z" id="libs" fill="#333333" fill-rule="nonzero"></path>
            <g id="folder">
                <path d="M39.1952339,1.36598157 L43.8047661,6.63401843 C44.5643185,7.50207827 45.6616226,8 46.8150729,8 L92,8 C94.209139,8 96,9.790861 96,12 L96,70 L96,70 L4,70 C1.790861,70 -3.72626139e-15,68.209139 0,66 L0,4 C-2.705415e-16,1.790861 1.790861,2.18216909e-15 4,0 L36.1849271,0 C37.3383774,-1.10006381e-15 38.4356815,0.497921729 39.1952339,1.36598157 Z" id="Path" fill="#FCA65C"></path>
                <path d="M58.1952339,14.3659816 L62.8047661,19.6340184 C63.5643185,20.5020783 64.6616226,21 65.8150729,21 L96.1538462,21 C98.3629852,21 100.153846,22.790861 100.153846,25 L100.153846,70 L100.153846,70 L12,70 C9.790861,70 8,68.209139 8,66 L8,17 C8,14.790861 9.790861,13 12,13 L55.1849271,13 C56.3383774,13 57.4356815,13.4979217 58.1952339,14.3659816 Z" id="Path" fill="#73B0DE" transform="translate(54.076923, 41.500000) scale(-1, 1) translate(-54.076923, -41.500000) "></path>
                <path d="M9,58 L9,70 L4,70 L4.19964034,69.9951047 C6.31603153,69.8910789 8,68.1421954 8,66 L8,66 L8,58 L9,58 Z" id="Combined-Shape" fill="#73B0DE"></path>
            </g>
        </g>
        <g id="trees-icon-label-copy-2" transform="translate(419.000000, 81.500000)">
            <path d="M146.96,52.0642857 L146.96,41.6642857 L151.24,41.6642857 C157,41.6642857 160.96,39.1042857 160.96,33.5442857 C160.96,27.7842857 156.96,25.8242857 151.08,25.8242857 L143.6,25.8242857 L143.6,52.0642857 L146.96,52.0642857 Z M150.84,38.9442857 L146.96,38.9442857 L146.96,28.5442857 L150.68,28.5442857 C155.28,28.5442857 157.6,29.7842857 157.6,33.5442857 C157.6,37.2642857 155.4,38.9442857 150.84,38.9442857 Z M170.44,52.5442857 C172.88,52.5442857 175,51.3042857 176.84,49.7442857 L176.96,49.7442857 L177.28,52.0642857 L180,52.0642857 L180,40.1042857 C180,35.3042857 177.96,32.1442857 173.24,32.1442857 C170.12,32.1442857 167.4,33.4642857 165.6,34.6642857 L166.88,36.9042857 C168.4,35.9042857 170.44,34.9042857 172.68,34.9042857 C175.84,34.9042857 176.64,37.2642857 176.68,39.7042857 C168.36,40.6242857 164.76,42.7042857 164.76,47.0242857 C164.76,50.5442857 167.2,52.5442857 170.44,52.5442857 Z M171.36,49.8242857 C169.48,49.8242857 168,48.9842857 168,46.8242857 C168,44.3042857 170.12,42.8242857 176.68,42.0642857 L176.68,47.3442857 C174.8,48.9842857 173.24,49.8242857 171.36,49.8242857 Z M194.16,52.5442857 C198.92,52.5442857 202.72,48.6242857 202.72,42.4242857 C202.72,36.7442857 199.52,33.3442857 194.92,33.3442857 C192.48,33.3442857 190.08,34.4642857 188.36,36.5842857 C188.96,28.5842857 191.64,28.0642857 197.88,27.1442857 C199.52,26.9042857 200.88,26.5442857 201.92,25.8642857 L201.24,22.8642857 C200.04,23.4242857 199.36,23.6242857 197.2,23.9442857 C189.8,25.0642857 185,27.1442857 185,40.2642857 C185,48.1042857 188.36,52.5442857 194.16,52.5442857 Z M194.16,49.7842857 C190.2,49.7842857 188.2,46.5042857 188.2,40.9042857 L188.2,39.3842857 L188.2,39.3842857 C190.16,36.7442857 192.2,35.9042857 194.08,35.9042857 C197.44,35.9042857 199.28,38.4242857 199.28,42.4242857 C199.28,46.8242857 197.16,49.7842857 194.16,49.7842857 Z M215.48,52.5442857 C220.24,52.5442857 224.52,48.8242857 224.52,42.3842857 C224.52,35.8642857 220.24,32.1442857 215.48,32.1442857 C210.72,32.1442857 206.48,35.8642857 206.48,42.3842857 C206.48,48.8242857 210.72,52.5442857 215.48,52.5442857 Z M215.48,49.7842857 C212.16,49.7842857 209.92,46.8242857 209.92,42.3842857 C209.92,37.9042857 212.16,34.9042857 215.48,34.9042857 C218.84,34.9042857 221.08,37.9042857 221.08,42.3842857 C221.08,46.8242857 218.84,49.7842857 215.48,49.7842857 Z M243.56,52.0642857 L243.56,32.6242857 L240.24,32.6242857 L240.24,41.6642857 C239.12,41.9042857 238.24,42.0242857 237.08,42.0242857 C233.56,42.0242857 232,40.8242857 232,37.9442857 L232,32.6242857 L228.68,32.6242857 L228.68,37.9442857 C228.68,42.7842857 231.52,44.7442857 236.44,44.7442857 C238.16,44.7442857 238.88,44.5842857 240.24,44.3442857 L240.24,52.0642857 L243.56,52.0642857 Z M253.68,52.0642857 L260.6,41.1042857 C261.36,39.9042857 262.36,38.1442857 263.12,36.6642857 L263.28,36.6642857 C263.08,39.4642857 262.96,41.8642857 262.96,43.9442857 L262.96,52.0642857 L266.12,52.0642857 L266.12,32.6242857 L262.6,32.6242857 L255.64,43.6242857 C254.88,44.8242857 253.88,46.6242857 253.12,48.0242857 L252.96,48.0242857 C253.16,45.2642857 253.32,42.8242857 253.32,40.7442857 L253.32,32.6242857 L250.12,32.6242857 L250.12,52.0642857 L253.68,52.0642857 Z M280.8,29.1442857 C285.28,29.1442857 286.92,26.1442857 287.08,23.0242857 L284.36,23.0242857 C284.28,25.3042857 283.44,27.1842857 280.8,27.1842857 C278.16,27.1842857 277.32,25.3042857 277.24,23.0242857 L274.52,23.0242857 C274.68,26.1442857 276.32,29.1442857 280.8,29.1442857 Z M276.24,52.0642857 L283.16,41.1042857 C283.92,39.9042857 284.92,38.1442857 285.68,36.6642857 L285.84,36.6642857 C285.64,39.4642857 285.52,41.8642857 285.52,43.9442857 L285.52,52.0642857 L288.68,52.0642857 L288.68,32.6242857 L285.16,32.6242857 L278.2,43.6242857 C277.44,44.8242857 276.44,46.6242857 275.68,48.0242857 L275.52,48.0242857 C275.72,45.2642857 275.88,42.8242857 275.88,40.7442857 L275.88,32.6242857 L272.68,32.6242857 L272.68,52.0642857 L276.24,52.0642857 Z M306.56,52.0642857 L306.56,43.3042857 L310.76,43.3042857 L315.84,52.0642857 L319.44,52.0642857 L313.2,41.8242857 L314.84,38.0242857 C315.84,35.7842857 316.64,35.4642857 317.64,35.4642857 C317.92,35.4642857 318.04,35.5042857 318.28,35.5842857 L318.88,32.4642857 C318.56,32.3042857 318.16,32.2242857 317.72,32.2242857 C315.6,32.2242857 314.12,32.8642857 312.56,36.3042857 L310.64,40.6242857 L306.56,40.6242857 L306.56,32.6242857 L303.28,32.6242857 L303.28,52.0642857 L306.56,52.0642857 Z M327.56,52.5442857 C330,52.5442857 332.12,51.3042857 333.96,49.7442857 L334.08,49.7442857 L334.4,52.0642857 L337.12,52.0642857 L337.12,40.1042857 C337.12,35.3042857 335.08,32.1442857 330.36,32.1442857 C327.24,32.1442857 324.52,33.4642857 322.72,34.6642857 L324,36.9042857 C325.52,35.9042857 327.56,34.9042857 329.8,34.9042857 C332.96,34.9042857 333.76,37.2642857 333.8,39.7042857 C325.48,40.6242857 321.88,42.7042857 321.88,47.0242857 C321.88,50.5442857 324.32,52.5442857 327.56,52.5442857 Z M328.48,49.8242857 C326.6,49.8242857 325.12,48.9842857 325.12,46.8242857 C325.12,44.3042857 327.24,42.8242857 333.8,42.0642857 L333.8,47.3442857 C331.92,48.9842857 330.36,49.8242857 328.48,49.8242857 Z M350.88,52.0642857 L350.88,35.3042857 L357.36,35.3042857 L357.36,32.6242857 L341.04,32.6242857 L341.04,35.3042857 L347.56,35.3042857 L347.56,52.0642857 L350.88,52.0642857 Z M366.16,52.5442857 C368.6,52.5442857 370.72,51.3042857 372.56,49.7442857 L372.68,49.7442857 L373,52.0642857 L375.72,52.0642857 L375.72,40.1042857 C375.72,35.3042857 373.68,32.1442857 368.96,32.1442857 C365.84,32.1442857 363.12,33.4642857 361.32,34.6642857 L362.6,36.9042857 C364.12,35.9042857 366.16,34.9042857 368.4,34.9042857 C371.56,34.9042857 372.36,37.2642857 372.4,39.7042857 C364.08,40.6242857 360.48,42.7042857 360.48,47.0242857 C360.48,50.5442857 362.92,52.5442857 366.16,52.5442857 Z M367.08,49.8242857 C365.2,49.8242857 363.72,48.9842857 363.72,46.8242857 C363.72,44.3042857 365.84,42.8242857 372.4,42.0642857 L372.4,47.3442857 C370.52,48.9842857 368.96,49.8242857 367.08,49.8242857 Z M380.8,52.4242857 C383.64,52.4242857 385.4,50.3042857 385.96,46.0642857 C386.4,42.5042857 386.8,38.9042857 387.24,35.3042857 L393.24,35.3042857 L393.24,52.0642857 L396.56,52.0642857 L396.56,32.6242857 L384.6,32.6242857 C384.12,36.8242857 383.64,41.0242857 383.12,45.2242857 C382.76,47.9842857 381.88,49.2242857 380.52,49.2242857 C380.16,49.2242857 379.88,49.1442857 379.64,49.0642857 L379,52.1042857 C379.56,52.3442857 380.04,52.4242857 380.8,52.4242857 Z M410.68,52.5442857 C415.44,52.5442857 419.72,48.8242857 419.72,42.3842857 C419.72,35.8642857 415.44,32.1442857 410.68,32.1442857 C405.92,32.1442857 401.68,35.8642857 401.68,42.3842857 C401.68,48.8242857 405.92,52.5442857 410.68,52.5442857 Z M410.68,49.7842857 C407.36,49.7842857 405.12,46.8242857 405.12,42.3842857 C405.12,37.9042857 407.36,34.9042857 410.68,34.9042857 C414.04,34.9042857 416.28,37.9042857 416.28,42.3842857 C416.28,46.8242857 414.04,49.7842857 410.68,49.7842857 Z M428.12,52.0642857 L428.12,35.3042857 L436.92,35.3042857 L436.92,32.6242857 L424.8,32.6242857 L424.8,52.0642857 L428.12,52.0642857 Z" id="Рабочийкаталог" fill="#333333" fill-rule="nonzero"></path>
            <g id="folder">
                <path d="M39.1952339,1.36598157 L43.8047661,6.63401843 C44.5643185,7.50207827 45.6616226,8 46.8150729,8 L92,8 C94.209139,8 96,9.790861 96,12 L96,70 L96,70 L4,70 C1.790861,70 -3.72626139e-15,68.209139 0,66 L0,4 C-2.705415e-16,1.790861 1.790861,2.18216909e-15 4,0 L36.1849271,0 C37.3383774,-1.10006381e-15 38.4356815,0.497921729 39.1952339,1.36598157 Z" id="Path" fill="#FCA65C"></path>
                <path d="M58.1952339,14.3659816 L62.8047661,19.6340184 C63.5643185,20.5020783 64.6616226,21 65.8150729,21 L96.1538462,21 C98.3629852,21 100.153846,22.790861 100.153846,25 L100.153846,70 L100.153846,70 L12,70 C9.790861,70 8,68.209139 8,66 L8,17 C8,14.790861 9.790861,13 12,13 L55.1849271,13 C56.3383774,13 57.4356815,13.4979217 58.1952339,14.3659816 Z" id="Path" fill="#73B0DE" transform="translate(54.076923, 41.500000) scale(-1, 1) translate(-54.076923, -41.500000) "></path>
                <path d="M9,58 L9,70 L4,70 L4.19964034,69.9951047 C6.31603153,69.8910789 8,68.1421954 8,66 L8,66 L8,58 L9,58 Z" id="Combined-Shape" fill="#73B0DE"></path>
                <g id="Path" transform="translate(37.000000, 29.000000)">
                    <use fill="#61A2D3" fill-rule="evenodd" xlink:href="#path-1"></use>
                    <use fill="black" fill-opacity="1" filter="url(#filter-2)" xlink:href="#path-1"></use>
                </g>
            </g>
        </g>
        <g id="trees-icon-label" transform="translate(743.000000, 348.500000)">
            <path d="M146.6,60.2642857 L146.6,53.7042857 L146.52,50.3042857 C148.28,51.7042857 150.12,52.5442857 151.88,52.5442857 C156.32,52.5442857 160.32,48.6642857 160.32,42.0642857 C160.32,36.0242857 157.6,32.1442857 152.6,32.1442857 C150.36,32.1442857 148.16,33.3842857 146.4,34.8642857 L146.28,34.8642857 L146,32.6242857 L143.28,32.6242857 L143.28,60.2642857 L146.6,60.2642857 Z M151.32,49.7442857 C150.04,49.7442857 148.36,49.2242857 146.6,47.7442857 L146.6,37.5842857 C148.48,35.8242857 150.12,34.9442857 151.76,34.9442857 C155.4,34.9442857 156.88,37.7842857 156.88,42.0642857 C156.88,46.8642857 154.52,49.7442857 151.32,49.7442857 Z M165.84,60.4242857 C169.72,60.4242857 171.76,57.5042857 173.12,53.6642857 L180.44,32.6242857 L177.2,32.6242857 L173.72,43.3442857 C173.2,45.0642857 172.64,47.0642857 172.12,48.8242857 L171.96,48.8242857 C171.32,47.0242857 170.68,45.0242857 170.04,43.3442857 L166.12,32.6242857 L162.68,32.6242857 L170.48,52.1042857 L170.04,53.5442857 C169.24,55.9442857 167.84,57.6642857 165.68,57.6642857 C165.2,57.6642857 164.72,57.5842857 164.24,57.4242857 L163.52,60.0242857 C164.16,60.2642857 164.92,60.4242857 165.84,60.4242857 Z M190.32,52.5442857 C191.64,52.5442857 192.96,52.1842857 194,51.7042857 L193.32,49.3442857 C192.52,49.7042857 191.8,49.8242857 191.08,49.8242857 C188.88,49.8242857 188.08,48.4642857 188.08,46.1042857 L188.08,35.3042857 L193.36,35.3042857 L193.36,32.6242857 L188.08,32.6242857 L188.08,26.3842857 L185.32,26.3842857 L184.92,32.6242857 L181.88,32.8242857 L181.88,35.3042857 L184.76,35.3042857 L184.76,46.0242857 C184.76,49.9042857 186.16,52.5442857 190.32,52.5442857 Z M201.08,52.0642857 L201.08,37.9842857 C203,36.0242857 204.4,35.0242857 206.36,35.0242857 C208.92,35.0242857 210.04,36.5442857 210.04,40.1842857 L210.04,52.0642857 L213.36,52.0642857 L213.36,39.7442857 C213.36,34.7842857 211.52,32.1442857 207.4,32.1442857 C204.72,32.1442857 202.76,33.5842857 200.96,35.3442857 L201.08,31.3442857 L201.08,23.5842857 L197.76,23.5842857 L197.76,52.0642857 L201.08,52.0642857 Z M227.08,52.5442857 C231.84,52.5442857 236.12,48.8242857 236.12,42.3842857 C236.12,35.8642857 231.84,32.1442857 227.08,32.1442857 C222.32,32.1442857 218.08,35.8642857 218.08,42.3842857 C218.08,48.8242857 222.32,52.5442857 227.08,52.5442857 Z M227.08,49.7842857 C223.76,49.7842857 221.52,46.8242857 221.52,42.3842857 C221.52,37.9042857 223.76,34.9042857 227.08,34.9042857 C230.44,34.9042857 232.68,37.9042857 232.68,42.3842857 C232.68,46.8242857 230.44,49.7842857 227.08,49.7842857 Z M244.52,52.0642857 L244.52,37.9842857 C246.44,36.0242857 247.84,35.0242857 249.8,35.0242857 C252.36,35.0242857 253.48,36.5442857 253.48,40.1842857 L253.48,52.0642857 L256.8,52.0642857 L256.8,39.7442857 C256.8,34.7842857 254.96,32.1442857 250.84,32.1442857 C248.16,32.1442857 246.16,33.5842857 244.32,35.4242857 L244.2,35.4242857 L243.92,32.6242857 L241.2,32.6242857 L241.2,52.0642857 L244.52,52.0642857 Z M279.32,57.1042857 L279.32,54.9042857 L260.28,54.9042857 L260.28,57.1042857 L279.32,57.1042857 Z M286.36,52.0642857 L286.36,46.9442857 L289.96,42.7442857 L295.64,52.0642857 L299.24,52.0642857 L291.92,40.4642857 L298.4,32.6242857 L294.68,32.6242857 L286.48,42.7842857 L286.36,42.7842857 L286.36,23.5842857 L283.08,23.5842857 L283.08,52.0642857 L286.36,52.0642857 Z M304.56,28.6242857 C305.84,28.6242857 306.76,27.7842857 306.76,26.4642857 C306.76,25.1842857 305.84,24.3042857 304.56,24.3042857 C303.28,24.3042857 302.36,25.1842857 302.36,26.4642857 C302.36,27.7842857 303.28,28.6242857 304.56,28.6242857 Z M306.2,52.0642857 L306.2,32.6242857 L302.88,32.6242857 L302.88,52.0642857 L306.2,52.0642857 Z M318.88,52.5442857 C320.2,52.5442857 321.52,52.1842857 322.56,51.7042857 L321.88,49.3442857 C321.08,49.7042857 320.36,49.8242857 319.64,49.8242857 C317.44,49.8242857 316.64,48.4642857 316.64,46.1042857 L316.64,35.3042857 L321.92,35.3042857 L321.92,32.6242857 L316.64,32.6242857 L316.64,26.3842857 L313.88,26.3842857 L313.48,32.6242857 L310.44,32.8242857 L310.44,35.3042857 L313.32,35.3042857 L313.32,46.0242857 C313.32,49.9042857 314.72,52.5442857 318.88,52.5442857 Z M331.4,52.5442857 C336,52.5442857 338.52,49.9042857 338.52,46.7442857 C338.52,43.2242857 335.6,41.9042857 332.56,40.8242857 C330.12,39.9842857 328.44,39.2642857 328.44,37.5042857 C328.44,36.0642857 329.52,34.7042857 332,34.7042857 C333.72,34.7042857 335.12,35.2642857 336.48,36.2642857 L338,34.3442857 C336.48,33.0642857 334.4,32.1442857 331.96,32.1442857 C327.72,32.1442857 325.24,34.5442857 325.24,37.6642857 C325.24,40.8642857 328.04,42.2642857 330.96,43.3042857 L331.398839,43.4651509 C333.4384,44.2214413 335.32,45.077619 335.32,46.9442857 C335.32,48.6242857 334.08,49.9442857 331.52,49.9442857 C329.12,49.9442857 327.36,49.2242857 325.68,47.8242857 L324.16,49.7442857 C325.96,51.5042857 328.56,52.5442857 331.4,52.5442857 Z" id="python_kits" fill="#333333" fill-rule="nonzero"></path>
            <g id="folder">
                <path d="M39.1952339,1.36598157 L43.8047661,6.63401843 C44.5643185,7.50207827 45.6616226,8 46.8150729,8 L92,8 C94.209139,8 96,9.790861 96,12 L96,70 L96,70 L4,70 C1.790861,70 -3.72626139e-15,68.209139 0,66 L0,4 C-2.705415e-16,1.790861 1.790861,2.18216909e-15 4,0 L36.1849271,0 C37.3383774,-1.10006381e-15 38.4356815,0.497921729 39.1952339,1.36598157 Z" id="Path" fill="#FCA65C"></path>
                <path d="M58.1952339,14.3659816 L62.8047661,19.6340184 C63.5643185,20.5020783 64.6616226,21 65.8150729,21 L96.1538462,21 C98.3629852,21 100.153846,22.790861 100.153846,25 L100.153846,70 L100.153846,70 L12,70 C9.790861,70 8,68.209139 8,66 L8,17 C8,14.790861 9.790861,13 12,13 L55.1849271,13 C56.3383774,13 57.4356815,13.4979217 58.1952339,14.3659816 Z" id="Path" fill="#73B0DE" transform="translate(54.076923, 41.500000) scale(-1, 1) translate(-54.076923, -41.500000) "></path>
                <path d="M9,58 L9,70 L4,70 L4.19964034,69.9951047 C6.31603153,69.8910789 8,68.1421954 8,66 L8,66 L8,58 L9,58 Z" id="Combined-Shape" fill="#73B0DE"></path>
            </g>
        </g>
        <g id="trees-icon-label" transform="translate(905.000000, 479.000000)">
            <path d="M130.76,52.48 C131.6,52.48 132.2,52.36 132.68,52.12 L132.24,49.64 C131.92,49.72 131.76,49.72 131.56,49.72 C131.04,49.72 130.6,49.36 130.6,48.32 L130.6,23.52 L127.28,23.52 L127.28,48.08 C127.28,50.88 128.28,52.48 130.76,52.48 Z M145.04,52.48 C149.8,52.48 154.08,48.76 154.08,42.32 C154.08,35.8 149.8,32.08 145.04,32.08 C140.28,32.08 136.04,35.8 136.04,42.32 C136.04,48.76 140.28,52.48 145.04,52.48 Z M145.04,49.72 C141.72,49.72 139.48,46.76 139.48,42.32 C139.48,37.84 141.72,34.84 145.04,34.84 C148.4,34.84 150.64,37.84 150.64,42.32 C150.64,46.76 148.4,49.72 145.04,49.72 Z M165.72,60.96 C171.76,60.96 175.56,57.84 175.56,54.2 C175.56,51 173.28,49.56 168.76,49.56 L165,49.56 C162.4,49.56 161.6,48.68 161.6,47.48 C161.6,46.4 162.12,45.76 162.84,45.16 C163.72,45.6 164.76,45.84 165.72,45.84 C169.68,45.84 172.84,43.24 172.84,39.08 C172.84,37.44 172.2,36 171.28,35.12 L175.24,35.12 L175.24,32.56 L168.48,32.56 C167.76,32.28 166.8,32.08 165.72,32.08 C161.76,32.08 158.4,34.76 158.4,39 C158.4,41.32 159.64,43.2 160.92,44.24 L160.92,44.4 C159.92,45.08 158.8,46.36 158.8,48 C158.8,49.52 159.56,50.56 160.52,51.16 L160.52,51.32 C158.76,52.52 157.68,54.08 157.68,55.72 C157.68,59.08 160.96,60.96 165.72,60.96 Z M165.72,43.6 C163.48,43.6 161.6,41.84 161.6,39 C161.6,36.16 163.44,34.48 165.72,34.48 C168,34.48 169.84,36.2 169.84,39 C169.84,41.84 167.96,43.6 165.72,43.6 Z M166.2,58.64 C162.68,58.64 160.56,57.36 160.56,55.28 C160.56,54.16 161.16,53 162.56,52 C163.4,52.24 164.32,52.32 165.08,52.32 L168.4,52.32 C170.96,52.32 172.32,52.92 172.32,54.72 C172.32,56.72 169.88,58.64 166.2,58.64 Z M181.04,28.56 C182.32,28.56 183.24,27.72 183.24,26.4 C183.24,25.12 182.32,24.24 181.04,24.24 C179.76,24.24 178.84,25.12 178.84,26.4 C178.84,27.72 179.76,28.56 181.04,28.56 Z M182.68,52 L182.68,32.56 L179.36,32.56 L179.36,52 L182.68,52 Z M192.56,52 L192.56,37.92 C194.48,35.96 195.88,34.96 197.84,34.96 C200.4,34.96 201.52,36.48 201.52,40.12 L201.52,52 L204.84,52 L204.84,39.68 C204.84,34.72 203,32.08 198.88,32.08 C196.2,32.08 194.2,33.52 192.36,35.36 L192.24,35.36 L191.96,32.56 L189.24,32.56 L189.24,52 L192.56,52 Z M218.68,52.48 C223.44,52.48 227.72,48.76 227.72,42.32 C227.72,35.8 223.44,32.08 218.68,32.08 C213.92,32.08 209.68,35.8 209.68,42.32 C209.68,48.76 213.92,52.48 218.68,52.48 Z M218.68,49.72 C215.36,49.72 213.12,46.76 213.12,42.32 C213.12,37.84 215.36,34.84 218.68,34.84 C222.04,34.84 224.28,37.84 224.28,42.32 C224.28,46.76 222.04,49.72 218.68,49.72 Z M236.12,52 L236.12,37.92 C237.92,35.92 239.52,34.96 240.96,34.96 C243.44,34.96 244.56,36.48 244.56,40.12 L244.56,52 L247.88,52 L247.88,37.92 C249.68,35.92 251.24,34.96 252.76,34.96 C255.2,34.96 256.36,36.48 256.36,40.12 L256.36,52 L259.68,52 L259.68,39.68 C259.68,34.72 257.76,32.08 253.76,32.08 C251.4,32.08 249.36,33.6 247.36,35.76 C246.56,33.48 244.96,32.08 241.96,32.08 C239.64,32.08 237.64,33.52 235.92,35.36 L235.8,35.36 L235.52,32.56 L232.8,32.56 L232.8,52 L236.12,52 Z M282.2,57.04 L282.2,54.84 L263.16,54.84 L263.16,57.04 L282.2,57.04 Z M293.52,52.48 C298.28,52.48 302.56,48.76 302.56,42.32 C302.56,35.8 298.28,32.08 293.52,32.08 C288.76,32.08 284.52,35.8 284.52,42.32 C284.52,48.76 288.76,52.48 293.52,52.48 Z M293.52,49.72 C290.2,49.72 287.96,46.76 287.96,42.32 C287.96,37.84 290.2,34.84 293.52,34.84 C296.88,34.84 299.12,37.84 299.12,42.32 C299.12,46.76 296.88,49.72 293.52,49.72 Z M310.96,60.2 L310.96,53.64 L310.88,50.24 C312.64,51.64 314.48,52.48 316.24,52.48 C320.68,52.48 324.68,48.6 324.68,42 C324.68,35.96 321.96,32.08 316.96,32.08 C314.72,32.08 312.52,33.32 310.76,34.8 L310.64,34.8 L310.36,32.56 L307.64,32.56 L307.64,60.2 L310.96,60.2 Z M315.68,49.68 C314.4,49.68 312.72,49.16 310.96,47.68 L310.96,37.52 C312.84,35.76 314.48,34.88 316.12,34.88 C319.76,34.88 321.24,37.72 321.24,42 C321.24,46.8 318.88,49.68 315.68,49.68 Z M335.96,52.48 C337.28,52.48 338.6,52.12 339.64,51.64 L338.96,49.28 C338.16,49.64 337.44,49.76 336.72,49.76 C334.52,49.76 333.72,48.4 333.72,46.04 L333.72,35.24 L339,35.24 L339,32.56 L333.72,32.56 L333.72,26.32 L330.96,26.32 L330.56,32.56 L327.52,32.76 L327.52,35.24 L330.4,35.24 L330.4,45.96 C330.4,49.84 331.8,52.48 335.96,52.48 Z M352,52.48 C356.44,52.48 360.44,48.6 360.44,41.96 C360.44,35.96 357.72,32.08 352.72,32.08 C350.56,32.08 348.4,33.24 346.6,34.76 L346.72,31.28 L346.72,23.52 L343.4,23.52 L343.4,52 L346.04,52 L346.36,50 L346.48,50 C348.2,51.56 350.2,52.48 352,52.48 Z M351.44,49.68 C350.16,49.68 348.4,49.16 346.72,47.68 L346.72,37.52 C348.56,35.76 350.24,34.88 351.88,34.88 C355.52,34.88 357,37.72 357,42 C357,46.8 354.64,49.68 351.44,49.68 Z M367.24,28.56 C368.52,28.56 369.44,27.72 369.44,26.4 C369.44,25.12 368.52,24.24 367.24,24.24 C365.96,24.24 365.04,25.12 365.04,26.4 C365.04,27.72 365.96,28.56 367.24,28.56 Z M368.88,52 L368.88,32.56 L365.56,32.56 L365.56,52 L368.88,52 Z M378.76,52 L378.76,37.92 C380.68,35.96 382.08,34.96 384.04,34.96 C386.6,34.96 387.72,36.48 387.72,40.12 L387.72,52 L391.04,52 L391.04,39.68 C391.04,34.72 389.2,32.08 385.08,32.08 C382.4,32.08 380.4,33.52 378.56,35.36 L378.44,35.36 L378.16,32.56 L375.44,32.56 L375.44,52 L378.76,52 Z M400.64,52 L400.64,37.92 C402.56,35.96 403.96,34.96 405.92,34.96 C408.48,34.96 409.6,36.48 409.6,40.12 L409.6,52 L412.92,52 L412.92,39.68 C412.92,34.72 411.08,32.08 406.96,32.08 C404.28,32.08 402.28,33.52 400.44,35.36 L400.32,35.36 L400.04,32.56 L397.32,32.56 L397.32,52 L400.64,52 Z M420.88,28.56 C422.16,28.56 423.08,27.72 423.08,26.4 C423.08,25.12 422.16,24.24 420.88,24.24 C419.6,24.24 418.68,25.12 418.68,26.4 C418.68,27.72 419.6,28.56 420.88,28.56 Z M422.52,52 L422.52,32.56 L419.2,32.56 L419.2,52 L422.52,52 Z M432.4,52 L432.4,37.92 C434.32,35.96 435.72,34.96 437.68,34.96 C440.24,34.96 441.36,36.48 441.36,40.12 L441.36,52 L444.68,52 L444.68,39.68 C444.68,34.72 442.84,32.08 438.72,32.08 C436.04,32.08 434.04,33.52 432.2,35.36 L432.08,35.36 L431.8,32.56 L429.08,32.56 L429.08,52 L432.4,52 Z M457.52,60.96 C463.56,60.96 467.36,57.84 467.36,54.2 C467.36,51 465.08,49.56 460.56,49.56 L456.8,49.56 C454.2,49.56 453.4,48.68 453.4,47.48 C453.4,46.4 453.92,45.76 454.64,45.16 C455.52,45.6 456.56,45.84 457.52,45.84 C461.48,45.84 464.64,43.24 464.64,39.08 C464.64,37.44 464,36 463.08,35.12 L467.04,35.12 L467.04,32.56 L460.28,32.56 C459.56,32.28 458.6,32.08 457.52,32.08 C453.56,32.08 450.2,34.76 450.2,39 C450.2,41.32 451.44,43.2 452.72,44.24 L452.72,44.4 C451.72,45.08 450.6,46.36 450.6,48 C450.6,49.52 451.36,50.56 452.32,51.16 L452.32,51.32 C450.56,52.52 449.48,54.08 449.48,55.72 C449.48,59.08 452.76,60.96 457.52,60.96 Z M457.52,43.6 C455.28,43.6 453.4,41.84 453.4,39 C453.4,36.16 455.24,34.48 457.52,34.48 C459.8,34.48 461.64,36.2 461.64,39 C461.64,41.84 459.76,43.6 457.52,43.6 Z M458,58.64 C454.48,58.64 452.36,57.36 452.36,55.28 C452.36,54.16 452.96,53 454.36,52 C455.2,52.24 456.12,52.32 456.88,52.32 L460.2,52.32 C462.76,52.32 464.12,52.92 464.12,54.72 C464.12,56.72 461.68,58.64 458,58.64 Z M487.4,57.04 L487.4,54.84 L468.36,54.84 L468.36,57.04 L487.4,57.04 Z M494.44,52 L494.44,46.88 L498.04,42.68 L503.72,52 L507.32,52 L500,40.4 L506.48,32.56 L502.76,32.56 L494.56,42.72 L494.44,42.72 L494.44,23.52 L491.16,23.52 L491.16,52 L494.44,52 Z M512.64,28.56 C513.92,28.56 514.84,27.72 514.84,26.4 C514.84,25.12 513.92,24.24 512.64,24.24 C511.36,24.24 510.44,25.12 510.44,26.4 C510.44,27.72 511.36,28.56 512.64,28.56 Z M514.28,52 L514.28,32.56 L510.96,32.56 L510.96,52 L514.28,52 Z M526.96,52.48 C528.28,52.48 529.6,52.12 530.64,51.64 L529.96,49.28 C529.16,49.64 528.44,49.76 527.72,49.76 C525.52,49.76 524.72,48.4 524.72,46.04 L524.72,35.24 L530,35.24 L530,32.56 L524.72,32.56 L524.72,26.32 L521.96,26.32 L521.56,32.56 L518.52,32.76 L518.52,35.24 L521.4,35.24 L521.4,45.96 C521.4,49.84 522.8,52.48 526.96,52.48 Z M536.12,52.48 C537.44,52.48 538.52,51.44 538.52,49.96 C538.52,48.44 537.44,47.4 536.12,47.4 C534.8,47.4 533.72,48.44 533.72,49.96 C533.72,51.44 534.8,52.48 536.12,52.48 Z M547.88,52.48 C548.72,52.48 549.32,52.36 549.8,52.12 L549.36,49.64 C549.04,49.72 548.88,49.72 548.68,49.72 C548.16,49.72 547.72,49.36 547.72,48.32 L547.72,23.52 L544.4,23.52 L544.4,48.08 C544.4,50.88 545.4,52.48 547.88,52.48 Z M561.16,60.96 C567.2,60.96 571,57.84 571,54.2 C571,51 568.72,49.56 564.2,49.56 L560.44,49.56 C557.84,49.56 557.04,48.68 557.04,47.48 C557.04,46.4 557.56,45.76 558.28,45.16 C559.16,45.6 560.2,45.84 561.16,45.84 C565.12,45.84 568.28,43.24 568.28,39.08 C568.28,37.44 567.64,36 566.72,35.12 L570.68,35.12 L570.68,32.56 L563.92,32.56 C563.2,32.28 562.24,32.08 561.16,32.08 C557.2,32.08 553.84,34.76 553.84,39 C553.84,41.32 555.08,43.2 556.36,44.24 L556.36,44.4 C555.36,45.08 554.24,46.36 554.24,48 C554.24,49.52 555,50.56 555.96,51.16 L555.96,51.32 C554.2,52.52 553.12,54.08 553.12,55.72 C553.12,59.08 556.4,60.96 561.16,60.96 Z M561.16,43.6 C558.92,43.6 557.04,41.84 557.04,39 C557.04,36.16 558.88,34.48 561.16,34.48 C563.44,34.48 565.28,36.2 565.28,39 C565.28,41.84 563.4,43.6 561.16,43.6 Z M561.64,58.64 C558.12,58.64 556,57.36 556,55.28 C556,54.16 556.6,53 558,52 C558.84,52.24 559.76,52.32 560.52,52.32 L563.84,52.32 C566.4,52.32 567.76,52.92 567.76,54.72 C567.76,56.72 565.32,58.64 561.64,58.64 Z M578.12,60.2 L578.12,53.64 L578.04,50.24 C579.8,51.64 581.64,52.48 583.4,52.48 C587.84,52.48 591.84,48.6 591.84,42 C591.84,35.96 589.12,32.08 584.12,32.08 C581.88,32.08 579.68,33.32 577.92,34.8 L577.8,34.8 L577.52,32.56 L574.8,32.56 L574.8,60.2 L578.12,60.2 Z M582.84,49.68 C581.56,49.68 579.88,49.16 578.12,47.68 L578.12,37.52 C580,35.76 581.64,34.88 583.28,34.88 C586.92,34.88 588.4,37.72 588.4,42 C588.4,46.8 586.04,49.68 582.84,49.68 Z" id="loginom_optbinning_kit.lgp" fill="#333333" fill-rule="nonzero"></path>
            <g id="Group">
                <path d="M64,0 C66.209139,-4.05812251e-16 68,1.790861 68,4 L68,66 C68,68.209139 66.209139,70 64,70 L60,70 C62.209139,70 64,68.209139 64,66 L64,66 L64,4 C64,1.790861 62.209139,-4.05812251e-16 60,0 L60,0 L64,0 Z" id="Combined-Shape" fill="#FCA65C"></path>
                <path d="M72,0 C74.209139,-4.05812251e-16 76,1.790861 76,4 L76,66 C76,68.209139 74.209139,70 72,70 L68,70 C70.209139,70 72,68.209139 72,66 L72,66 L72,4 C72,1.790861 70.209139,-4.05812251e-16 68,0 L68,0 L72,0 Z" id="Combined-Shape" fill="#FCA65C"></path>
                <path d="M80,0 C82.209139,-4.05812251e-16 84,1.790861 84,4 L84,66 C84,68.209139 82.209139,70 80,70 L76,70 C78.209139,70 80,68.209139 80,66 L80,66 L80,4 C80,1.790861 78.209139,-4.05812251e-16 76,0 L76,0 L80,0 Z" id="Combined-Shape" fill="#FCA65C"></path>
                <rect id="Rectangle" fill="#73B0DE" x="0" y="0" width="60" height="70" rx="4"></rect>
                <g transform="translate(12.000000, 22.000000)" fill="#F9F9F9" id="Rectangle">
                    <rect x="0" y="0" width="36" height="2" rx="1"></rect>
                    <rect x="0" y="6" width="36" height="2" rx="1"></rect>
                    <rect x="0" y="12" width="36" height="2" rx="1"></rect>
                    <rect x="0" y="18" width="36" height="2" rx="1"></rect>
                    <rect x="0" y="24" width="25" height="2" rx="1"></rect>
                </g>
            </g>
        </g>
        <g id="trees-icon-label" transform="translate(905.000000, 609.000000)">
            <path d="M130.76,52.48 C131.6,52.48 132.2,52.36 132.68,52.12 L132.24,49.64 C131.92,49.72 131.76,49.72 131.56,49.72 C131.04,49.72 130.6,49.36 130.6,48.32 L130.6,23.52 L127.28,23.52 L127.28,48.08 C127.28,50.88 128.28,52.48 130.76,52.48 Z M145.04,52.48 C149.8,52.48 154.08,48.76 154.08,42.32 C154.08,35.8 149.8,32.08 145.04,32.08 C140.28,32.08 136.04,35.8 136.04,42.32 C136.04,48.76 140.28,52.48 145.04,52.48 Z M145.04,49.72 C141.72,49.72 139.48,46.76 139.48,42.32 C139.48,37.84 141.72,34.84 145.04,34.84 C148.4,34.84 150.64,37.84 150.64,42.32 C150.64,46.76 148.4,49.72 145.04,49.72 Z M165.72,60.96 C171.76,60.96 175.56,57.84 175.56,54.2 C175.56,51 173.28,49.56 168.76,49.56 L165,49.56 C162.4,49.56 161.6,48.68 161.6,47.48 C161.6,46.4 162.12,45.76 162.84,45.16 C163.72,45.6 164.76,45.84 165.72,45.84 C169.68,45.84 172.84,43.24 172.84,39.08 C172.84,37.44 172.2,36 171.28,35.12 L175.24,35.12 L175.24,32.56 L168.48,32.56 C167.76,32.28 166.8,32.08 165.72,32.08 C161.76,32.08 158.4,34.76 158.4,39 C158.4,41.32 159.64,43.2 160.92,44.24 L160.92,44.4 C159.92,45.08 158.8,46.36 158.8,48 C158.8,49.52 159.56,50.56 160.52,51.16 L160.52,51.32 C158.76,52.52 157.68,54.08 157.68,55.72 C157.68,59.08 160.96,60.96 165.72,60.96 Z M165.72,43.6 C163.48,43.6 161.6,41.84 161.6,39 C161.6,36.16 163.44,34.48 165.72,34.48 C168,34.48 169.84,36.2 169.84,39 C169.84,41.84 167.96,43.6 165.72,43.6 Z M166.2,58.64 C162.68,58.64 160.56,57.36 160.56,55.28 C160.56,54.16 161.16,53 162.56,52 C163.4,52.24 164.32,52.32 165.08,52.32 L168.4,52.32 C170.96,52.32 172.32,52.92 172.32,54.72 C172.32,56.72 169.88,58.64 166.2,58.64 Z M181.04,28.56 C182.32,28.56 183.24,27.72 183.24,26.4 C183.24,25.12 182.32,24.24 181.04,24.24 C179.76,24.24 178.84,25.12 178.84,26.4 C178.84,27.72 179.76,28.56 181.04,28.56 Z M182.68,52 L182.68,32.56 L179.36,32.56 L179.36,52 L182.68,52 Z M192.56,52 L192.56,37.92 C194.48,35.96 195.88,34.96 197.84,34.96 C200.4,34.96 201.52,36.48 201.52,40.12 L201.52,52 L204.84,52 L204.84,39.68 C204.84,34.72 203,32.08 198.88,32.08 C196.2,32.08 194.2,33.52 192.36,35.36 L192.24,35.36 L191.96,32.56 L189.24,32.56 L189.24,52 L192.56,52 Z M218.68,52.48 C223.44,52.48 227.72,48.76 227.72,42.32 C227.72,35.8 223.44,32.08 218.68,32.08 C213.92,32.08 209.68,35.8 209.68,42.32 C209.68,48.76 213.92,52.48 218.68,52.48 Z M218.68,49.72 C215.36,49.72 213.12,46.76 213.12,42.32 C213.12,37.84 215.36,34.84 218.68,34.84 C222.04,34.84 224.28,37.84 224.28,42.32 C224.28,46.76 222.04,49.72 218.68,49.72 Z M236.12,52 L236.12,37.92 C237.92,35.92 239.52,34.96 240.96,34.96 C243.44,34.96 244.56,36.48 244.56,40.12 L244.56,52 L247.88,52 L247.88,37.92 C249.68,35.92 251.24,34.96 252.76,34.96 C255.2,34.96 256.36,36.48 256.36,40.12 L256.36,52 L259.68,52 L259.68,39.68 C259.68,34.72 257.76,32.08 253.76,32.08 C251.4,32.08 249.36,33.6 247.36,35.76 C246.56,33.48 244.96,32.08 241.96,32.08 C239.64,32.08 237.64,33.52 235.92,35.36 L235.8,35.36 L235.52,32.56 L232.8,32.56 L232.8,52 L236.12,52 Z M282.2,57.04 L282.2,54.84 L263.16,54.84 L263.16,57.04 L282.2,57.04 Z M289.28,60.2 L289.28,53.64 L289.2,50.24 C290.96,51.64 292.8,52.48 294.56,52.48 C299,52.48 303,48.6 303,42 C303,35.96 300.28,32.08 295.28,32.08 C293.04,32.08 290.84,33.32 289.08,34.8 L288.96,34.8 L288.68,32.56 L285.96,32.56 L285.96,60.2 L289.28,60.2 Z M294,49.68 C292.72,49.68 291.04,49.16 289.28,47.68 L289.28,37.52 C291.16,35.76 292.8,34.88 294.44,34.88 C298.08,34.88 299.56,37.72 299.56,42 C299.56,46.8 297.2,49.68 294,49.68 Z M312.64,52.48 C315.08,52.48 317.2,51.24 319.04,49.68 L319.16,49.68 L319.48,52 L322.2,52 L322.2,40.04 C322.2,35.24 320.16,32.08 315.44,32.08 C312.32,32.08 309.6,33.4 307.8,34.6 L309.08,36.84 C310.6,35.84 312.64,34.84 314.88,34.84 C318.04,34.84 318.84,37.2 318.88,39.64 C310.56,40.56 306.96,42.64 306.96,46.96 C306.96,50.48 309.4,52.48 312.64,52.48 Z M313.56,49.76 C311.68,49.76 310.2,48.92 310.2,46.76 C310.2,44.24 312.32,42.76 318.88,42 L318.88,47.28 C317,48.92 315.44,49.76 313.56,49.76 Z M331.64,52 L331.64,37.92 C333.56,35.96 334.96,34.96 336.92,34.96 C339.48,34.96 340.6,36.48 340.6,40.12 L340.6,52 L343.92,52 L343.92,39.68 C343.92,34.72 342.08,32.08 337.96,32.08 C335.28,32.08 333.28,33.52 331.44,35.36 L331.32,35.36 L331.04,32.56 L328.32,32.56 L328.32,52 L331.64,52 Z M356.84,52.48 C359.12,52.48 361.2,51.2 362.72,49.72 L362.84,49.72 L363.12,52 L365.84,52 L365.84,23.52 L362.52,23.52 L362.52,31 L362.68,34.32 C360.96,32.92 359.48,32.08 357.24,32.08 C352.8,32.08 348.8,36 348.8,42.32 C348.8,48.8 351.96,52.48 356.84,52.48 Z M357.56,49.68 C354.16,49.68 352.24,46.92 352.24,42.28 C352.24,37.84 354.72,34.88 357.8,34.88 C359.4,34.88 360.88,35.4 362.52,36.88 L362.52,47.04 C360.92,48.8 359.36,49.68 357.56,49.68 Z M376.88,52.48 C379.32,52.48 381.44,51.24 383.28,49.68 L383.4,49.68 L383.72,52 L386.44,52 L386.44,40.04 C386.44,35.24 384.4,32.08 379.68,32.08 C376.56,32.08 373.84,33.4 372.04,34.6 L373.32,36.84 C374.84,35.84 376.88,34.84 379.12,34.84 C382.28,34.84 383.08,37.2 383.12,39.64 C374.8,40.56 371.2,42.64 371.2,46.96 C371.2,50.48 373.64,52.48 376.88,52.48 Z M377.8,49.76 C375.92,49.76 374.44,48.92 374.44,46.76 C374.44,44.24 376.56,42.76 383.12,42 L383.12,47.28 C381.24,48.92 379.68,49.76 377.8,49.76 Z M397.64,52.48 C402.24,52.48 404.76,49.84 404.76,46.68 C404.76,43.16 401.84,41.84 398.8,40.76 C396.36,39.92 394.68,39.2 394.68,37.44 C394.68,36 395.76,34.64 398.24,34.64 C399.96,34.64 401.36,35.2 402.72,36.2 L404.24,34.28 C402.72,33 400.64,32.08 398.2,32.08 C393.96,32.08 391.48,34.48 391.48,37.6 C391.48,40.8 394.28,42.2 397.2,43.24 L397.638839,43.4008652 C399.6784,44.1571556 401.56,45.0133333 401.56,46.88 C401.56,48.56 400.32,49.88 397.76,49.88 C395.36,49.88 393.6,49.16 391.92,47.76 L390.4,49.68 C392.2,51.44 394.8,52.48 397.64,52.48 Z M425.56,57.04 L425.56,54.84 L406.52,54.84 L406.52,57.04 L425.56,57.04 Z M432.6,52 L432.6,46.88 L436.2,42.68 L441.88,52 L445.48,52 L438.16,40.4 L444.64,32.56 L440.92,32.56 L432.72,42.72 L432.6,42.72 L432.6,23.52 L429.32,23.52 L429.32,52 L432.6,52 Z M450.8,28.56 C452.08,28.56 453,27.72 453,26.4 C453,25.12 452.08,24.24 450.8,24.24 C449.52,24.24 448.6,25.12 448.6,26.4 C448.6,27.72 449.52,28.56 450.8,28.56 Z M452.44,52 L452.44,32.56 L449.12,32.56 L449.12,52 L452.44,52 Z M465.12,52.48 C466.44,52.48 467.76,52.12 468.8,51.64 L468.12,49.28 C467.32,49.64 466.6,49.76 465.88,49.76 C463.68,49.76 462.88,48.4 462.88,46.04 L462.88,35.24 L468.16,35.24 L468.16,32.56 L462.88,32.56 L462.88,26.32 L460.12,26.32 L459.72,32.56 L456.68,32.76 L456.68,35.24 L459.56,35.24 L459.56,45.96 C459.56,49.84 460.96,52.48 465.12,52.48 Z M474.28,52.48 C475.6,52.48 476.68,51.44 476.68,49.96 C476.68,48.44 475.6,47.4 474.28,47.4 C472.96,47.4 471.88,48.44 471.88,49.96 C471.88,51.44 472.96,52.48 474.28,52.48 Z M486.04,52.48 C486.88,52.48 487.48,52.36 487.96,52.12 L487.52,49.64 C487.2,49.72 487.04,49.72 486.84,49.72 C486.32,49.72 485.88,49.36 485.88,48.32 L485.88,23.52 L482.56,23.52 L482.56,48.08 C482.56,50.88 483.56,52.48 486.04,52.48 Z M499.32,60.96 C505.36,60.96 509.16,57.84 509.16,54.2 C509.16,51 506.88,49.56 502.36,49.56 L498.6,49.56 C496,49.56 495.2,48.68 495.2,47.48 C495.2,46.4 495.72,45.76 496.44,45.16 C497.32,45.6 498.36,45.84 499.32,45.84 C503.28,45.84 506.44,43.24 506.44,39.08 C506.44,37.44 505.8,36 504.88,35.12 L508.84,35.12 L508.84,32.56 L502.08,32.56 C501.36,32.28 500.4,32.08 499.32,32.08 C495.36,32.08 492,34.76 492,39 C492,41.32 493.24,43.2 494.52,44.24 L494.52,44.4 C493.52,45.08 492.4,46.36 492.4,48 C492.4,49.52 493.16,50.56 494.12,51.16 L494.12,51.32 C492.36,52.52 491.28,54.08 491.28,55.72 C491.28,59.08 494.56,60.96 499.32,60.96 Z M499.32,43.6 C497.08,43.6 495.2,41.84 495.2,39 C495.2,36.16 497.04,34.48 499.32,34.48 C501.6,34.48 503.44,36.2 503.44,39 C503.44,41.84 501.56,43.6 499.32,43.6 Z M499.8,58.64 C496.28,58.64 494.16,57.36 494.16,55.28 C494.16,54.16 494.76,53 496.16,52 C497,52.24 497.92,52.32 498.68,52.32 L502,52.32 C504.56,52.32 505.92,52.92 505.92,54.72 C505.92,56.72 503.48,58.64 499.8,58.64 Z M516.28,60.2 L516.28,53.64 L516.2,50.24 C517.96,51.64 519.8,52.48 521.56,52.48 C526,52.48 530,48.6 530,42 C530,35.96 527.28,32.08 522.28,32.08 C520.04,32.08 517.84,33.32 516.08,34.8 L515.96,34.8 L515.68,32.56 L512.96,32.56 L512.96,60.2 L516.28,60.2 Z M521,49.68 C519.72,49.68 518.04,49.16 516.28,47.68 L516.28,37.52 C518.16,35.76 519.8,34.88 521.44,34.88 C525.08,34.88 526.56,37.72 526.56,42 C526.56,46.8 524.2,49.68 521,49.68 Z" id="loginom_pandas_kit.lgp" fill="#333333" fill-rule="nonzero"></path>
            <g id="Group">
                <path d="M64,0 C66.209139,-4.05812251e-16 68,1.790861 68,4 L68,66 C68,68.209139 66.209139,70 64,70 L60,70 C62.209139,70 64,68.209139 64,66 L64,66 L64,4 C64,1.790861 62.209139,-4.05812251e-16 60,0 L60,0 L64,0 Z" id="Combined-Shape" fill="#FCA65C"></path>
                <path d="M72,0 C74.209139,-4.05812251e-16 76,1.790861 76,4 L76,66 C76,68.209139 74.209139,70 72,70 L68,70 C70.209139,70 72,68.209139 72,66 L72,66 L72,4 C72,1.790861 70.209139,-4.05812251e-16 68,0 L68,0 L72,0 Z" id="Combined-Shape" fill="#FCA65C"></path>
                <path d="M80,0 C82.209139,-4.05812251e-16 84,1.790861 84,4 L84,66 C84,68.209139 82.209139,70 80,70 L76,70 C78.209139,70 80,68.209139 80,66 L80,66 L80,4 C80,1.790861 78.209139,-4.05812251e-16 76,0 L76,0 L80,0 Z" id="Combined-Shape" fill="#FCA65C"></path>
                <rect id="Rectangle" fill="#73B0DE" x="0" y="0" width="60" height="70" rx="4"></rect>
                <g transform="translate(12.000000, 22.000000)" fill="#F9F9F9" id="Rectangle">
                    <rect x="0" y="0" width="36" height="2" rx="1"></rect>
                    <rect x="0" y="6" width="36" height="2" rx="1"></rect>
                    <rect x="0" y="12" width="36" height="2" rx="1"></rect>
                    <rect x="0" y="18" width="36" height="2" rx="1"></rect>
                    <rect x="0" y="24" width="25" height="2" rx="1"></rect>
                </g>
            </g>
        </g>
        <g id="trees-icon-label" transform="translate(905.000000, 739.000000)">
            <path d="M130.76,52.48 C131.6,52.48 132.2,52.36 132.68,52.12 L132.24,49.64 C131.92,49.72 131.76,49.72 131.56,49.72 C131.04,49.72 130.6,49.36 130.6,48.32 L130.6,23.52 L127.28,23.52 L127.28,48.08 C127.28,50.88 128.28,52.48 130.76,52.48 Z M145.04,52.48 C149.8,52.48 154.08,48.76 154.08,42.32 C154.08,35.8 149.8,32.08 145.04,32.08 C140.28,32.08 136.04,35.8 136.04,42.32 C136.04,48.76 140.28,52.48 145.04,52.48 Z M145.04,49.72 C141.72,49.72 139.48,46.76 139.48,42.32 C139.48,37.84 141.72,34.84 145.04,34.84 C148.4,34.84 150.64,37.84 150.64,42.32 C150.64,46.76 148.4,49.72 145.04,49.72 Z M165.72,60.96 C171.76,60.96 175.56,57.84 175.56,54.2 C175.56,51 173.28,49.56 168.76,49.56 L165,49.56 C162.4,49.56 161.6,48.68 161.6,47.48 C161.6,46.4 162.12,45.76 162.84,45.16 C163.72,45.6 164.76,45.84 165.72,45.84 C169.68,45.84 172.84,43.24 172.84,39.08 C172.84,37.44 172.2,36 171.28,35.12 L175.24,35.12 L175.24,32.56 L168.48,32.56 C167.76,32.28 166.8,32.08 165.72,32.08 C161.76,32.08 158.4,34.76 158.4,39 C158.4,41.32 159.64,43.2 160.92,44.24 L160.92,44.4 C159.92,45.08 158.8,46.36 158.8,48 C158.8,49.52 159.56,50.56 160.52,51.16 L160.52,51.32 C158.76,52.52 157.68,54.08 157.68,55.72 C157.68,59.08 160.96,60.96 165.72,60.96 Z M165.72,43.6 C163.48,43.6 161.6,41.84 161.6,39 C161.6,36.16 163.44,34.48 165.72,34.48 C168,34.48 169.84,36.2 169.84,39 C169.84,41.84 167.96,43.6 165.72,43.6 Z M166.2,58.64 C162.68,58.64 160.56,57.36 160.56,55.28 C160.56,54.16 161.16,53 162.56,52 C163.4,52.24 164.32,52.32 165.08,52.32 L168.4,52.32 C170.96,52.32 172.32,52.92 172.32,54.72 C172.32,56.72 169.88,58.64 166.2,58.64 Z M181.04,28.56 C182.32,28.56 183.24,27.72 183.24,26.4 C183.24,25.12 182.32,24.24 181.04,24.24 C179.76,24.24 178.84,25.12 178.84,26.4 C178.84,27.72 179.76,28.56 181.04,28.56 Z M182.68,52 L182.68,32.56 L179.36,32.56 L179.36,52 L182.68,52 Z M192.56,52 L192.56,37.92 C194.48,35.96 195.88,34.96 197.84,34.96 C200.4,34.96 201.52,36.48 201.52,40.12 L201.52,52 L204.84,52 L204.84,39.68 C204.84,34.72 203,32.08 198.88,32.08 C196.2,32.08 194.2,33.52 192.36,35.36 L192.24,35.36 L191.96,32.56 L189.24,32.56 L189.24,52 L192.56,52 Z M218.68,52.48 C223.44,52.48 227.72,48.76 227.72,42.32 C227.72,35.8 223.44,32.08 218.68,32.08 C213.92,32.08 209.68,35.8 209.68,42.32 C209.68,48.76 213.92,52.48 218.68,52.48 Z M218.68,49.72 C215.36,49.72 213.12,46.76 213.12,42.32 C213.12,37.84 215.36,34.84 218.68,34.84 C222.04,34.84 224.28,37.84 224.28,42.32 C224.28,46.76 222.04,49.72 218.68,49.72 Z M236.12,52 L236.12,37.92 C237.92,35.92 239.52,34.96 240.96,34.96 C243.44,34.96 244.56,36.48 244.56,40.12 L244.56,52 L247.88,52 L247.88,37.92 C249.68,35.92 251.24,34.96 252.76,34.96 C255.2,34.96 256.36,36.48 256.36,40.12 L256.36,52 L259.68,52 L259.68,39.68 C259.68,34.72 257.76,32.08 253.76,32.08 C251.4,32.08 249.36,33.6 247.36,35.76 C246.56,33.48 244.96,32.08 241.96,32.08 C239.64,32.08 237.64,33.52 235.92,35.36 L235.8,35.36 L235.52,32.56 L232.8,32.56 L232.8,52 L236.12,52 Z M282.2,57.04 L282.2,54.84 L263.16,54.84 L263.16,57.04 L282.2,57.04 Z M289.28,60.2 L289.28,53.64 L289.2,50.24 C290.96,51.64 292.8,52.48 294.56,52.48 C299,52.48 303,48.6 303,42 C303,35.96 300.28,32.08 295.28,32.08 C293.04,32.08 290.84,33.32 289.08,34.8 L288.96,34.8 L288.68,32.56 L285.96,32.56 L285.96,60.2 L289.28,60.2 Z M294,49.68 C292.72,49.68 291.04,49.16 289.28,47.68 L289.28,37.52 C291.16,35.76 292.8,34.88 294.44,34.88 C298.08,34.88 299.56,37.72 299.56,42 C299.56,46.8 297.2,49.68 294,49.68 Z M308.52,60.36 C312.4,60.36 314.44,57.44 315.8,53.6 L323.12,32.56 L319.88,32.56 L316.4,43.28 C315.88,45 315.32,47 314.8,48.76 L314.64,48.76 C314,46.96 313.36,44.96 312.72,43.28 L308.8,32.56 L305.36,32.56 L313.16,52.04 L312.72,53.48 C311.92,55.88 310.52,57.6 308.36,57.6 C307.88,57.6 307.4,57.52 306.92,57.36 L306.2,59.96 C306.84,60.2 307.6,60.36 308.52,60.36 Z M333,52.48 C334.32,52.48 335.64,52.12 336.68,51.64 L336,49.28 C335.2,49.64 334.48,49.76 333.76,49.76 C331.56,49.76 330.76,48.4 330.76,46.04 L330.76,35.24 L336.04,35.24 L336.04,32.56 L330.76,32.56 L330.76,26.32 L328,26.32 L327.6,32.56 L324.56,32.76 L324.56,35.24 L327.44,35.24 L327.44,45.96 C327.44,49.84 328.84,52.48 333,52.48 Z M343.76,52 L343.76,37.92 C345.68,35.96 347.08,34.96 349.04,34.96 C351.6,34.96 352.72,36.48 352.72,40.12 L352.72,52 L356.04,52 L356.04,39.68 C356.04,34.72 354.2,32.08 350.08,32.08 C347.4,32.08 345.44,33.52 343.64,35.28 L343.76,31.28 L343.76,23.52 L340.44,23.52 L340.44,52 L343.76,52 Z M369.76,52.48 C374.52,52.48 378.8,48.76 378.8,42.32 C378.8,35.8 374.52,32.08 369.76,32.08 C365,32.08 360.76,35.8 360.76,42.32 C360.76,48.76 365,52.48 369.76,52.48 Z M369.76,49.72 C366.44,49.72 364.2,46.76 364.2,42.32 C364.2,37.84 366.44,34.84 369.76,34.84 C373.12,34.84 375.36,37.84 375.36,42.32 C375.36,46.76 373.12,49.72 369.76,49.72 Z M387.2,52 L387.2,37.92 C389.12,35.96 390.52,34.96 392.48,34.96 C395.04,34.96 396.16,36.48 396.16,40.12 L396.16,52 L399.48,52 L399.48,39.68 C399.48,34.72 397.64,32.08 393.52,32.08 C390.84,32.08 388.84,33.52 387,35.36 L386.88,35.36 L386.6,32.56 L383.88,32.56 L383.88,52 L387.2,52 Z M422,57.04 L422,54.84 L402.96,54.84 L402.96,57.04 L422,57.04 Z M429.04,52 L429.04,46.88 L432.64,42.68 L438.32,52 L441.92,52 L434.6,40.4 L441.08,32.56 L437.36,32.56 L429.16,42.72 L429.04,42.72 L429.04,23.52 L425.76,23.52 L425.76,52 L429.04,52 Z M447.24,28.56 C448.52,28.56 449.44,27.72 449.44,26.4 C449.44,25.12 448.52,24.24 447.24,24.24 C445.96,24.24 445.04,25.12 445.04,26.4 C445.04,27.72 445.96,28.56 447.24,28.56 Z M448.88,52 L448.88,32.56 L445.56,32.56 L445.56,52 L448.88,52 Z M461.56,52.48 C462.88,52.48 464.2,52.12 465.24,51.64 L464.56,49.28 C463.76,49.64 463.04,49.76 462.32,49.76 C460.12,49.76 459.32,48.4 459.32,46.04 L459.32,35.24 L464.6,35.24 L464.6,32.56 L459.32,32.56 L459.32,26.32 L456.56,26.32 L456.16,32.56 L453.12,32.76 L453.12,35.24 L456,35.24 L456,45.96 C456,49.84 457.4,52.48 461.56,52.48 Z M470.72,52.48 C472.04,52.48 473.12,51.44 473.12,49.96 C473.12,48.44 472.04,47.4 470.72,47.4 C469.4,47.4 468.32,48.44 468.32,49.96 C468.32,51.44 469.4,52.48 470.72,52.48 Z M482.48,52.48 C483.32,52.48 483.92,52.36 484.4,52.12 L483.96,49.64 C483.64,49.72 483.48,49.72 483.28,49.72 C482.76,49.72 482.32,49.36 482.32,48.32 L482.32,23.52 L479,23.52 L479,48.08 C479,50.88 480,52.48 482.48,52.48 Z M495.76,60.96 C501.8,60.96 505.6,57.84 505.6,54.2 C505.6,51 503.32,49.56 498.8,49.56 L495.04,49.56 C492.44,49.56 491.64,48.68 491.64,47.48 C491.64,46.4 492.16,45.76 492.88,45.16 C493.76,45.6 494.8,45.84 495.76,45.84 C499.72,45.84 502.88,43.24 502.88,39.08 C502.88,37.44 502.24,36 501.32,35.12 L505.28,35.12 L505.28,32.56 L498.52,32.56 C497.8,32.28 496.84,32.08 495.76,32.08 C491.8,32.08 488.44,34.76 488.44,39 C488.44,41.32 489.68,43.2 490.96,44.24 L490.96,44.4 C489.96,45.08 488.84,46.36 488.84,48 C488.84,49.52 489.6,50.56 490.56,51.16 L490.56,51.32 C488.8,52.52 487.72,54.08 487.72,55.72 C487.72,59.08 491,60.96 495.76,60.96 Z M495.76,43.6 C493.52,43.6 491.64,41.84 491.64,39 C491.64,36.16 493.48,34.48 495.76,34.48 C498.04,34.48 499.88,36.2 499.88,39 C499.88,41.84 498,43.6 495.76,43.6 Z M496.24,58.64 C492.72,58.64 490.6,57.36 490.6,55.28 C490.6,54.16 491.2,53 492.6,52 C493.44,52.24 494.36,52.32 495.12,52.32 L498.44,52.32 C501,52.32 502.36,52.92 502.36,54.72 C502.36,56.72 499.92,58.64 496.24,58.64 Z M512.72,60.2 L512.72,53.64 L512.64,50.24 C514.4,51.64 516.24,52.48 518,52.48 C522.44,52.48 526.44,48.6 526.44,42 C526.44,35.96 523.72,32.08 518.72,32.08 C516.48,32.08 514.28,33.32 512.52,34.8 L512.4,34.8 L512.12,32.56 L509.4,32.56 L509.4,60.2 L512.72,60.2 Z M517.44,49.68 C516.16,49.68 514.48,49.16 512.72,47.68 L512.72,37.52 C514.6,35.76 516.24,34.88 517.88,34.88 C521.52,34.88 523,37.72 523,42 C523,46.8 520.64,49.68 517.44,49.68 Z" id="loginom_python_kit.lgp" fill="#333333" fill-rule="nonzero"></path>
            <g id="Group">
                <path d="M64,0 C66.209139,-4.05812251e-16 68,1.790861 68,4 L68,66 C68,68.209139 66.209139,70 64,70 L60,70 C62.209139,70 64,68.209139 64,66 L64,66 L64,4 C64,1.790861 62.209139,-4.05812251e-16 60,0 L60,0 L64,0 Z" id="Combined-Shape" fill="#FCA65C"></path>
                <path d="M72,0 C74.209139,-4.05812251e-16 76,1.790861 76,4 L76,66 C76,68.209139 74.209139,70 72,70 L68,70 C70.209139,70 72,68.209139 72,66 L72,66 L72,4 C72,1.790861 70.209139,-4.05812251e-16 68,0 L68,0 L72,0 Z" id="Combined-Shape" fill="#FCA65C"></path>
                <path d="M80,0 C82.209139,-4.05812251e-16 84,1.790861 84,4 L84,66 C84,68.209139 82.209139,70 80,70 L76,70 C78.209139,70 80,68.209139 80,66 L80,66 L80,4 C80,1.790861 78.209139,-4.05812251e-16 76,0 L76,0 L80,0 Z" id="Combined-Shape" fill="#FCA65C"></path>
                <rect id="Rectangle" fill="#73B0DE" x="0" y="0" width="60" height="70" rx="4"></rect>
                <g transform="translate(12.000000, 22.000000)" fill="#F9F9F9" id="Rectangle">
                    <rect x="0" y="0" width="36" height="2" rx="1"></rect>
                    <rect x="0" y="6" width="36" height="2" rx="1"></rect>
                    <rect x="0" y="12" width="36" height="2" rx="1"></rect>
                    <rect x="0" y="18" width="36" height="2" rx="1"></rect>
                    <rect x="0" y="24" width="25" height="2" rx="1"></rect>
                </g>
            </g>
        </g>
        <g id="trees-icon-label" transform="translate(905.000000, 869.000000)">
            <path d="M130.76,52.48 C131.6,52.48 132.2,52.36 132.68,52.12 L132.24,49.64 C131.92,49.72 131.76,49.72 131.56,49.72 C131.04,49.72 130.6,49.36 130.6,48.32 L130.6,23.52 L127.28,23.52 L127.28,48.08 C127.28,50.88 128.28,52.48 130.76,52.48 Z M145.04,52.48 C149.8,52.48 154.08,48.76 154.08,42.32 C154.08,35.8 149.8,32.08 145.04,32.08 C140.28,32.08 136.04,35.8 136.04,42.32 C136.04,48.76 140.28,52.48 145.04,52.48 Z M145.04,49.72 C141.72,49.72 139.48,46.76 139.48,42.32 C139.48,37.84 141.72,34.84 145.04,34.84 C148.4,34.84 150.64,37.84 150.64,42.32 C150.64,46.76 148.4,49.72 145.04,49.72 Z M165.72,60.96 C171.76,60.96 175.56,57.84 175.56,54.2 C175.56,51 173.28,49.56 168.76,49.56 L165,49.56 C162.4,49.56 161.6,48.68 161.6,47.48 C161.6,46.4 162.12,45.76 162.84,45.16 C163.72,45.6 164.76,45.84 165.72,45.84 C169.68,45.84 172.84,43.24 172.84,39.08 C172.84,37.44 172.2,36 171.28,35.12 L175.24,35.12 L175.24,32.56 L168.48,32.56 C167.76,32.28 166.8,32.08 165.72,32.08 C161.76,32.08 158.4,34.76 158.4,39 C158.4,41.32 159.64,43.2 160.92,44.24 L160.92,44.4 C159.92,45.08 158.8,46.36 158.8,48 C158.8,49.52 159.56,50.56 160.52,51.16 L160.52,51.32 C158.76,52.52 157.68,54.08 157.68,55.72 C157.68,59.08 160.96,60.96 165.72,60.96 Z M165.72,43.6 C163.48,43.6 161.6,41.84 161.6,39 C161.6,36.16 163.44,34.48 165.72,34.48 C168,34.48 169.84,36.2 169.84,39 C169.84,41.84 167.96,43.6 165.72,43.6 Z M166.2,58.64 C162.68,58.64 160.56,57.36 160.56,55.28 C160.56,54.16 161.16,53 162.56,52 C163.4,52.24 164.32,52.32 165.08,52.32 L168.4,52.32 C170.96,52.32 172.32,52.92 172.32,54.72 C172.32,56.72 169.88,58.64 166.2,58.64 Z M181.04,28.56 C182.32,28.56 183.24,27.72 183.24,26.4 C183.24,25.12 182.32,24.24 181.04,24.24 C179.76,24.24 178.84,25.12 178.84,26.4 C178.84,27.72 179.76,28.56 181.04,28.56 Z M182.68,52 L182.68,32.56 L179.36,32.56 L179.36,52 L182.68,52 Z M192.56,52 L192.56,37.92 C194.48,35.96 195.88,34.96 197.84,34.96 C200.4,34.96 201.52,36.48 201.52,40.12 L201.52,52 L204.84,52 L204.84,39.68 C204.84,34.72 203,32.08 198.88,32.08 C196.2,32.08 194.2,33.52 192.36,35.36 L192.24,35.36 L191.96,32.56 L189.24,32.56 L189.24,52 L192.56,52 Z M218.68,52.48 C223.44,52.48 227.72,48.76 227.72,42.32 C227.72,35.8 223.44,32.08 218.68,32.08 C213.92,32.08 209.68,35.8 209.68,42.32 C209.68,48.76 213.92,52.48 218.68,52.48 Z M218.68,49.72 C215.36,49.72 213.12,46.76 213.12,42.32 C213.12,37.84 215.36,34.84 218.68,34.84 C222.04,34.84 224.28,37.84 224.28,42.32 C224.28,46.76 222.04,49.72 218.68,49.72 Z M236.12,52 L236.12,37.92 C237.92,35.92 239.52,34.96 240.96,34.96 C243.44,34.96 244.56,36.48 244.56,40.12 L244.56,52 L247.88,52 L247.88,37.92 C249.68,35.92 251.24,34.96 252.76,34.96 C255.2,34.96 256.36,36.48 256.36,40.12 L256.36,52 L259.68,52 L259.68,39.68 C259.68,34.72 257.76,32.08 253.76,32.08 C251.4,32.08 249.36,33.6 247.36,35.76 C246.56,33.48 244.96,32.08 241.96,32.08 C239.64,32.08 237.64,33.52 235.92,35.36 L235.8,35.36 L235.52,32.56 L232.8,32.56 L232.8,52 L236.12,52 Z M282.2,57.04 L282.2,54.84 L263.16,54.84 L263.16,57.04 L282.2,57.04 Z M291.04,52.48 C295.64,52.48 298.16,49.84 298.16,46.68 C298.16,43.16 295.24,41.84 292.2,40.76 C289.76,39.92 288.08,39.2 288.08,37.44 C288.08,36 289.16,34.64 291.64,34.64 C293.36,34.64 294.76,35.2 296.12,36.2 L297.64,34.28 C296.12,33 294.04,32.08 291.6,32.08 C287.36,32.08 284.88,34.48 284.88,37.6 C284.88,40.8 287.68,42.2 290.6,43.24 L291.038839,43.4008652 C293.0784,44.1571556 294.96,45.0133333 294.96,46.88 C294.96,48.56 293.72,49.88 291.16,49.88 C288.76,49.88 287,49.16 285.32,47.76 L283.8,49.68 C285.6,51.44 288.2,52.48 291.04,52.48 Z M306,52 L306,46.88 L309.6,42.68 L315.28,52 L318.88,52 L311.56,40.4 L318.04,32.56 L314.32,32.56 L306.12,42.72 L306,42.72 L306,23.52 L302.72,23.52 L302.72,52 L306,52 Z M326,52.48 C326.84,52.48 327.44,52.36 327.92,52.12 L327.48,49.64 C327.16,49.72 327,49.72 326.8,49.72 C326.28,49.72 325.84,49.36 325.84,48.32 L325.84,23.52 L322.52,23.52 L322.52,48.08 C322.52,50.88 323.52,52.48 326,52.48 Z M340.56,52.48 C343.24,52.48 345.32,51.68 347,50.48 L345.84,48.36 C344.48,49.28 342.84,49.8 340.96,49.8 C337.28,49.8 334.84,47.16 334.56,43.16 L347.64,43.16 C347.76,42.52 347.8,41.92 347.8,41.2 C347.8,35.6 344.96,32.08 340,32.08 C335.56,32.08 331.28,35.96 331.28,42.28 C331.28,48.72 335.36,52.48 340.56,52.48 Z M344.84,40.6 L334.56,40.6 C334.96,36.88 337.36,34.72 340.08,34.72 C343.04,34.72 344.84,36.76 344.84,40.6 Z M357.04,52.48 C359.48,52.48 361.6,51.24 363.44,49.68 L363.56,49.68 L363.88,52 L366.6,52 L366.6,40.04 C366.6,35.24 364.56,32.08 359.84,32.08 C356.72,32.08 354,33.4 352.2,34.6 L353.48,36.84 C355,35.84 357.04,34.84 359.28,34.84 C362.44,34.84 363.24,37.2 363.28,39.64 C354.96,40.56 351.36,42.64 351.36,46.96 C351.36,50.48 353.8,52.48 357.04,52.48 Z M357.96,49.76 C356.08,49.76 354.6,48.92 354.6,46.76 C354.6,44.24 356.72,42.76 363.28,42 L363.28,47.28 C361.4,48.92 359.84,49.76 357.96,49.76 Z M376.04,52 L376.04,39.52 C377.36,36.24 379.32,35.08 380.96,35.08 C381.72,35.08 382.16,35.16 382.72,35.32 L383.44,32.48 C382.84,32.2 382.24,32.08 381.36,32.08 C379.2,32.08 377.2,33.64 375.84,36.08 L375.72,36.08 L375.44,32.56 L372.72,32.56 L372.72,52 L376.04,52 Z M389.96,52 L389.96,37.92 C391.88,35.96 393.28,34.96 395.24,34.96 C397.8,34.96 398.92,36.48 398.92,40.12 L398.92,52 L402.24,52 L402.24,39.68 C402.24,34.72 400.4,32.08 396.28,32.08 C393.6,32.08 391.6,33.52 389.76,35.36 L389.64,35.36 L389.36,32.56 L386.64,32.56 L386.64,52 L389.96,52 Z M424.76,57.04 L424.76,54.84 L405.72,54.84 L405.72,57.04 L424.76,57.04 Z M431.8,52 L431.8,46.88 L435.4,42.68 L441.08,52 L444.68,52 L437.36,40.4 L443.84,32.56 L440.12,32.56 L431.92,42.72 L431.8,42.72 L431.8,23.52 L428.52,23.52 L428.52,52 L431.8,52 Z M450,28.56 C451.28,28.56 452.2,27.72 452.2,26.4 C452.2,25.12 451.28,24.24 450,24.24 C448.72,24.24 447.8,25.12 447.8,26.4 C447.8,27.72 448.72,28.56 450,28.56 Z M451.64,52 L451.64,32.56 L448.32,32.56 L448.32,52 L451.64,52 Z M464.32,52.48 C465.64,52.48 466.96,52.12 468,51.64 L467.32,49.28 C466.52,49.64 465.8,49.76 465.08,49.76 C462.88,49.76 462.08,48.4 462.08,46.04 L462.08,35.24 L467.36,35.24 L467.36,32.56 L462.08,32.56 L462.08,26.32 L459.32,26.32 L458.92,32.56 L455.88,32.76 L455.88,35.24 L458.76,35.24 L458.76,45.96 C458.76,49.84 460.16,52.48 464.32,52.48 Z M473.48,52.48 C474.8,52.48 475.88,51.44 475.88,49.96 C475.88,48.44 474.8,47.4 473.48,47.4 C472.16,47.4 471.08,48.44 471.08,49.96 C471.08,51.44 472.16,52.48 473.48,52.48 Z M485.24,52.48 C486.08,52.48 486.68,52.36 487.16,52.12 L486.72,49.64 C486.4,49.72 486.24,49.72 486.04,49.72 C485.52,49.72 485.08,49.36 485.08,48.32 L485.08,23.52 L481.76,23.52 L481.76,48.08 C481.76,50.88 482.76,52.48 485.24,52.48 Z M498.52,60.96 C504.56,60.96 508.36,57.84 508.36,54.2 C508.36,51 506.08,49.56 501.56,49.56 L497.8,49.56 C495.2,49.56 494.4,48.68 494.4,47.48 C494.4,46.4 494.92,45.76 495.64,45.16 C496.52,45.6 497.56,45.84 498.52,45.84 C502.48,45.84 505.64,43.24 505.64,39.08 C505.64,37.44 505,36 504.08,35.12 L508.04,35.12 L508.04,32.56 L501.28,32.56 C500.56,32.28 499.6,32.08 498.52,32.08 C494.56,32.08 491.2,34.76 491.2,39 C491.2,41.32 492.44,43.2 493.72,44.24 L493.72,44.4 C492.72,45.08 491.6,46.36 491.6,48 C491.6,49.52 492.36,50.56 493.32,51.16 L493.32,51.32 C491.56,52.52 490.48,54.08 490.48,55.72 C490.48,59.08 493.76,60.96 498.52,60.96 Z M498.52,43.6 C496.28,43.6 494.4,41.84 494.4,39 C494.4,36.16 496.24,34.48 498.52,34.48 C500.8,34.48 502.64,36.2 502.64,39 C502.64,41.84 500.76,43.6 498.52,43.6 Z M499,58.64 C495.48,58.64 493.36,57.36 493.36,55.28 C493.36,54.16 493.96,53 495.36,52 C496.2,52.24 497.12,52.32 497.88,52.32 L501.2,52.32 C503.76,52.32 505.12,52.92 505.12,54.72 C505.12,56.72 502.68,58.64 499,58.64 Z M515.48,60.2 L515.48,53.64 L515.4,50.24 C517.16,51.64 519,52.48 520.76,52.48 C525.2,52.48 529.2,48.6 529.2,42 C529.2,35.96 526.48,32.08 521.48,32.08 C519.24,32.08 517.04,33.32 515.28,34.8 L515.16,34.8 L514.88,32.56 L512.16,32.56 L512.16,60.2 L515.48,60.2 Z M520.2,49.68 C518.92,49.68 517.24,49.16 515.48,47.68 L515.48,37.52 C517.36,35.76 519,34.88 520.64,34.88 C524.28,34.88 525.76,37.72 525.76,42 C525.76,46.8 523.4,49.68 520.2,49.68 Z" id="loginom_sklearn_kit.lgp" fill="#333333" fill-rule="nonzero"></path>
            <g id="Group">
                <path d="M64,0 C66.209139,-4.05812251e-16 68,1.790861 68,4 L68,66 C68,68.209139 66.209139,70 64,70 L60,70 C62.209139,70 64,68.209139 64,66 L64,66 L64,4 C64,1.790861 62.209139,-4.05812251e-16 60,0 L60,0 L64,0 Z" id="Combined-Shape" fill="#FCA65C"></path>
                <path d="M72,0 C74.209139,-4.05812251e-16 76,1.790861 76,4 L76,66 C76,68.209139 74.209139,70 72,70 L68,70 C70.209139,70 72,68.209139 72,66 L72,66 L72,4 C72,1.790861 70.209139,-4.05812251e-16 68,0 L68,0 L72,0 Z" id="Combined-Shape" fill="#FCA65C"></path>
                <path d="M80,0 C82.209139,-4.05812251e-16 84,1.790861 84,4 L84,66 C84,68.209139 82.209139,70 80,70 L76,70 C78.209139,70 80,68.209139 80,66 L80,66 L80,4 C80,1.790861 78.209139,-4.05812251e-16 76,0 L76,0 L80,0 Z" id="Combined-Shape" fill="#FCA65C"></path>
                <rect id="Rectangle" fill="#73B0DE" x="0" y="0" width="60" height="70" rx="4"></rect>
                <g transform="translate(12.000000, 22.000000)" fill="#F9F9F9" id="Rectangle">
                    <rect x="0" y="0" width="36" height="2" rx="1"></rect>
                    <rect x="0" y="6" width="36" height="2" rx="1"></rect>
                    <rect x="0" y="12" width="36" height="2" rx="1"></rect>
                    <rect x="0" y="18" width="36" height="2" rx="1"></rect>
                    <rect x="0" y="24" width="25" height="2" rx="1"></rect>
                </g>
            </g>
        </g>
        <g id="trees-icon-label" transform="translate(905.000000, 999.000000)">
            <path d="M130.76,52.48 C131.6,52.48 132.2,52.36 132.68,52.12 L132.24,49.64 C131.92,49.72 131.76,49.72 131.56,49.72 C131.04,49.72 130.6,49.36 130.6,48.32 L130.6,23.52 L127.28,23.52 L127.28,48.08 C127.28,50.88 128.28,52.48 130.76,52.48 Z M145.04,52.48 C149.8,52.48 154.08,48.76 154.08,42.32 C154.08,35.8 149.8,32.08 145.04,32.08 C140.28,32.08 136.04,35.8 136.04,42.32 C136.04,48.76 140.28,52.48 145.04,52.48 Z M145.04,49.72 C141.72,49.72 139.48,46.76 139.48,42.32 C139.48,37.84 141.72,34.84 145.04,34.84 C148.4,34.84 150.64,37.84 150.64,42.32 C150.64,46.76 148.4,49.72 145.04,49.72 Z M165.72,60.96 C171.76,60.96 175.56,57.84 175.56,54.2 C175.56,51 173.28,49.56 168.76,49.56 L165,49.56 C162.4,49.56 161.6,48.68 161.6,47.48 C161.6,46.4 162.12,45.76 162.84,45.16 C163.72,45.6 164.76,45.84 165.72,45.84 C169.68,45.84 172.84,43.24 172.84,39.08 C172.84,37.44 172.2,36 171.28,35.12 L175.24,35.12 L175.24,32.56 L168.48,32.56 C167.76,32.28 166.8,32.08 165.72,32.08 C161.76,32.08 158.4,34.76 158.4,39 C158.4,41.32 159.64,43.2 160.92,44.24 L160.92,44.4 C159.92,45.08 158.8,46.36 158.8,48 C158.8,49.52 159.56,50.56 160.52,51.16 L160.52,51.32 C158.76,52.52 157.68,54.08 157.68,55.72 C157.68,59.08 160.96,60.96 165.72,60.96 Z M165.72,43.6 C163.48,43.6 161.6,41.84 161.6,39 C161.6,36.16 163.44,34.48 165.72,34.48 C168,34.48 169.84,36.2 169.84,39 C169.84,41.84 167.96,43.6 165.72,43.6 Z M166.2,58.64 C162.68,58.64 160.56,57.36 160.56,55.28 C160.56,54.16 161.16,53 162.56,52 C163.4,52.24 164.32,52.32 165.08,52.32 L168.4,52.32 C170.96,52.32 172.32,52.92 172.32,54.72 C172.32,56.72 169.88,58.64 166.2,58.64 Z M181.04,28.56 C182.32,28.56 183.24,27.72 183.24,26.4 C183.24,25.12 182.32,24.24 181.04,24.24 C179.76,24.24 178.84,25.12 178.84,26.4 C178.84,27.72 179.76,28.56 181.04,28.56 Z M182.68,52 L182.68,32.56 L179.36,32.56 L179.36,52 L182.68,52 Z M192.56,52 L192.56,37.92 C194.48,35.96 195.88,34.96 197.84,34.96 C200.4,34.96 201.52,36.48 201.52,40.12 L201.52,52 L204.84,52 L204.84,39.68 C204.84,34.72 203,32.08 198.88,32.08 C196.2,32.08 194.2,33.52 192.36,35.36 L192.24,35.36 L191.96,32.56 L189.24,32.56 L189.24,52 L192.56,52 Z M218.68,52.48 C223.44,52.48 227.72,48.76 227.72,42.32 C227.72,35.8 223.44,32.08 218.68,32.08 C213.92,32.08 209.68,35.8 209.68,42.32 C209.68,48.76 213.92,52.48 218.68,52.48 Z M218.68,49.72 C215.36,49.72 213.12,46.76 213.12,42.32 C213.12,37.84 215.36,34.84 218.68,34.84 C222.04,34.84 224.28,37.84 224.28,42.32 C224.28,46.76 222.04,49.72 218.68,49.72 Z M236.12,52 L236.12,37.92 C237.92,35.92 239.52,34.96 240.96,34.96 C243.44,34.96 244.56,36.48 244.56,40.12 L244.56,52 L247.88,52 L247.88,37.92 C249.68,35.92 251.24,34.96 252.76,34.96 C255.2,34.96 256.36,36.48 256.36,40.12 L256.36,52 L259.68,52 L259.68,39.68 C259.68,34.72 257.76,32.08 253.76,32.08 C251.4,32.08 249.36,33.6 247.36,35.76 C246.56,33.48 244.96,32.08 241.96,32.08 C239.64,32.08 237.64,33.52 235.92,35.36 L235.8,35.36 L235.52,32.56 L232.8,32.56 L232.8,52 L236.12,52 Z M282.2,57.04 L282.2,54.84 L263.16,54.84 L263.16,57.04 L282.2,57.04 Z M293.64,52.48 C295.96,52.48 298.16,51.6 299.92,50 L298.48,47.88 C297.32,48.92 295.72,49.72 293.92,49.72 C290.36,49.72 287.96,46.76 287.96,42.32 C287.96,37.84 290.52,34.84 294.04,34.84 C295.6,34.84 296.84,35.44 297.92,36.44 L299.56,34.36 C298.2,33.08 296.44,32.08 293.88,32.08 C288.88,32.08 284.52,35.8 284.52,42.32 C284.52,48.76 288.48,52.48 293.64,52.48 Z M308.68,52.48 C311.12,52.48 313.24,51.24 315.08,49.68 L315.2,49.68 L315.52,52 L318.24,52 L318.24,40.04 C318.24,35.24 316.2,32.08 311.48,32.08 C308.36,32.08 305.64,33.4 303.84,34.6 L305.12,36.84 C306.64,35.84 308.68,34.84 310.92,34.84 C314.08,34.84 314.88,37.2 314.92,39.64 C306.6,40.56 303,42.64 303,46.96 C303,50.48 305.44,52.48 308.68,52.48 Z M309.6,49.76 C307.72,49.76 306.24,48.92 306.24,46.76 C306.24,44.24 308.36,42.76 314.92,42 L314.92,47.28 C313.04,48.92 311.48,49.76 309.6,49.76 Z M330.48,52.48 C331.8,52.48 333.12,52.12 334.16,51.64 L333.48,49.28 C332.68,49.64 331.96,49.76 331.24,49.76 C329.04,49.76 328.24,48.4 328.24,46.04 L328.24,35.24 L333.52,35.24 L333.52,32.56 L328.24,32.56 L328.24,26.32 L325.48,26.32 L325.08,32.56 L322.04,32.76 L322.04,35.24 L324.92,35.24 L324.92,45.96 C324.92,49.84 326.32,52.48 330.48,52.48 Z M345.76,52.48 C348.44,52.48 350.52,51.68 352.2,50.48 L351.04,48.36 C349.68,49.28 348.04,49.8 346.16,49.8 C342.48,49.8 340.04,47.16 339.76,43.16 L352.84,43.16 C352.96,42.52 353,41.92 353,41.2 C353,35.6 350.16,32.08 345.2,32.08 C340.76,32.08 336.48,35.96 336.48,42.28 C336.48,48.72 340.56,52.48 345.76,52.48 Z M350.04,40.6 L339.76,40.6 C340.16,36.88 342.56,34.72 345.28,34.72 C348.24,34.72 350.04,36.76 350.04,40.6 Z M364.32,60.96 C370.36,60.96 374.16,57.84 374.16,54.2 C374.16,51 371.88,49.56 367.36,49.56 L363.6,49.56 C361,49.56 360.2,48.68 360.2,47.48 C360.2,46.4 360.72,45.76 361.44,45.16 C362.32,45.6 363.36,45.84 364.32,45.84 C368.28,45.84 371.44,43.24 371.44,39.08 C371.44,37.44 370.8,36 369.88,35.12 L373.84,35.12 L373.84,32.56 L367.08,32.56 C366.36,32.28 365.4,32.08 364.32,32.08 C360.36,32.08 357,34.76 357,39 C357,41.32 358.24,43.2 359.52,44.24 L359.52,44.4 C358.52,45.08 357.4,46.36 357.4,48 C357.4,49.52 358.16,50.56 359.12,51.16 L359.12,51.32 C357.36,52.52 356.28,54.08 356.28,55.72 C356.28,59.08 359.56,60.96 364.32,60.96 Z M364.32,43.6 C362.08,43.6 360.2,41.84 360.2,39 C360.2,36.16 362.04,34.48 364.32,34.48 C366.6,34.48 368.44,36.2 368.44,39 C368.44,41.84 366.56,43.6 364.32,43.6 Z M364.8,58.64 C361.28,58.64 359.16,57.36 359.16,55.28 C359.16,54.16 359.76,53 361.16,52 C362,52.24 362.92,52.32 363.68,52.32 L367,52.32 C369.56,52.32 370.92,52.92 370.92,54.72 C370.92,56.72 368.48,58.64 364.8,58.64 Z M385.52,52.48 C390.28,52.48 394.56,48.76 394.56,42.32 C394.56,35.8 390.28,32.08 385.52,32.08 C380.76,32.08 376.52,35.8 376.52,42.32 C376.52,48.76 380.76,52.48 385.52,52.48 Z M385.52,49.72 C382.2,49.72 379.96,46.76 379.96,42.32 C379.96,37.84 382.2,34.84 385.52,34.84 C388.88,34.84 391.12,37.84 391.12,42.32 C391.12,46.76 388.88,49.72 385.52,49.72 Z M402.96,52 L402.96,39.52 C404.28,36.24 406.24,35.08 407.88,35.08 C408.64,35.08 409.08,35.16 409.64,35.32 L410.36,32.48 C409.76,32.2 409.16,32.08 408.28,32.08 C406.12,32.08 404.12,33.64 402.76,36.08 L402.64,36.08 L402.36,32.56 L399.64,32.56 L399.64,52 L402.96,52 Z M413.92,60.36 C417.8,60.36 419.84,57.44 421.2,53.6 L428.52,32.56 L425.28,32.56 L421.8,43.28 C421.28,45 420.72,47 420.2,48.76 L420.04,48.76 C419.4,46.96 418.76,44.96 418.12,43.28 L414.2,32.56 L410.76,32.56 L418.56,52.04 L418.12,53.48 C417.32,55.88 415.92,57.6 413.76,57.6 C413.28,57.6 412.8,57.52 412.32,57.36 L411.6,59.96 C412.24,60.2 413,60.36 413.92,60.36 Z M448.52,57.04 L448.52,54.84 L429.48,54.84 L429.48,57.04 L448.52,57.04 Z M455.56,52 L455.56,46.88 L459.16,42.68 L464.84,52 L468.44,52 L461.12,40.4 L467.6,32.56 L463.88,32.56 L455.68,42.72 L455.56,42.72 L455.56,23.52 L452.28,23.52 L452.28,52 L455.56,52 Z M473.76,28.56 C475.04,28.56 475.96,27.72 475.96,26.4 C475.96,25.12 475.04,24.24 473.76,24.24 C472.48,24.24 471.56,25.12 471.56,26.4 C471.56,27.72 472.48,28.56 473.76,28.56 Z M475.4,52 L475.4,32.56 L472.08,32.56 L472.08,52 L475.4,52 Z M488.08,52.48 C489.4,52.48 490.72,52.12 491.76,51.64 L491.08,49.28 C490.28,49.64 489.56,49.76 488.84,49.76 C486.64,49.76 485.84,48.4 485.84,46.04 L485.84,35.24 L491.12,35.24 L491.12,32.56 L485.84,32.56 L485.84,26.32 L483.08,26.32 L482.68,32.56 L479.64,32.76 L479.64,35.24 L482.52,35.24 L482.52,45.96 C482.52,49.84 483.92,52.48 488.08,52.48 Z M497.24,52.48 C498.56,52.48 499.64,51.44 499.64,49.96 C499.64,48.44 498.56,47.4 497.24,47.4 C495.92,47.4 494.84,48.44 494.84,49.96 C494.84,51.44 495.92,52.48 497.24,52.48 Z M509,52.48 C509.84,52.48 510.44,52.36 510.92,52.12 L510.48,49.64 C510.16,49.72 510,49.72 509.8,49.72 C509.28,49.72 508.84,49.36 508.84,48.32 L508.84,23.52 L505.52,23.52 L505.52,48.08 C505.52,50.88 506.52,52.48 509,52.48 Z M522.28,60.96 C528.32,60.96 532.12,57.84 532.12,54.2 C532.12,51 529.84,49.56 525.32,49.56 L521.56,49.56 C518.96,49.56 518.16,48.68 518.16,47.48 C518.16,46.4 518.68,45.76 519.4,45.16 C520.28,45.6 521.32,45.84 522.28,45.84 C526.24,45.84 529.4,43.24 529.4,39.08 C529.4,37.44 528.76,36 527.84,35.12 L531.8,35.12 L531.8,32.56 L525.04,32.56 C524.32,32.28 523.36,32.08 522.28,32.08 C518.32,32.08 514.96,34.76 514.96,39 C514.96,41.32 516.2,43.2 517.48,44.24 L517.48,44.4 C516.48,45.08 515.36,46.36 515.36,48 C515.36,49.52 516.12,50.56 517.08,51.16 L517.08,51.32 C515.32,52.52 514.24,54.08 514.24,55.72 C514.24,59.08 517.52,60.96 522.28,60.96 Z M522.28,43.6 C520.04,43.6 518.16,41.84 518.16,39 C518.16,36.16 520,34.48 522.28,34.48 C524.56,34.48 526.4,36.2 526.4,39 C526.4,41.84 524.52,43.6 522.28,43.6 Z M522.76,58.64 C519.24,58.64 517.12,57.36 517.12,55.28 C517.12,54.16 517.72,53 519.12,52 C519.96,52.24 520.88,52.32 521.64,52.32 L524.96,52.32 C527.52,52.32 528.88,52.92 528.88,54.72 C528.88,56.72 526.44,58.64 522.76,58.64 Z M539.24,60.2 L539.24,53.64 L539.16,50.24 C540.92,51.64 542.76,52.48 544.52,52.48 C548.96,52.48 552.96,48.6 552.96,42 C552.96,35.96 550.24,32.08 545.24,32.08 C543,32.08 540.8,33.32 539.04,34.8 L538.92,34.8 L538.64,32.56 L535.92,32.56 L535.92,60.2 L539.24,60.2 Z M543.96,49.68 C542.68,49.68 541,49.16 539.24,47.68 L539.24,37.52 C541.12,35.76 542.76,34.88 544.4,34.88 C548.04,34.88 549.52,37.72 549.52,42 C549.52,46.8 547.16,49.68 543.96,49.68 Z" id="loginom_category_kit.lgp" fill="#333333" fill-rule="nonzero"></path>
            <g id="Group">
                <path d="M64,0 C66.209139,-4.05812251e-16 68,1.790861 68,4 L68,66 C68,68.209139 66.209139,70 64,70 L60,70 C62.209139,70 64,68.209139 64,66 L64,66 L64,4 C64,1.790861 62.209139,-4.05812251e-16 60,0 L60,0 L64,0 Z" id="Combined-Shape" fill="#FCA65C"></path>
                <path d="M72,0 C74.209139,-4.05812251e-16 76,1.790861 76,4 L76,66 C76,68.209139 74.209139,70 72,70 L68,70 C70.209139,70 72,68.209139 72,66 L72,66 L72,4 C72,1.790861 70.209139,-4.05812251e-16 68,0 L68,0 L72,0 Z" id="Combined-Shape" fill="#FCA65C"></path>
                <path d="M80,0 C82.209139,-4.05812251e-16 84,1.790861 84,4 L84,66 C84,68.209139 82.209139,70 80,70 L76,70 C78.209139,70 80,68.209139 80,66 L80,66 L80,4 C80,1.790861 78.209139,-4.05812251e-16 76,0 L76,0 L80,0 Z" id="Combined-Shape" fill="#FCA65C"></path>
                <rect id="Rectangle" fill="#73B0DE" x="0" y="0" width="60" height="70" rx="4"></rect>
                <g transform="translate(12.000000, 22.000000)" fill="#F9F9F9" id="Rectangle">
                    <rect x="0" y="0" width="36" height="2" rx="1"></rect>
                    <rect x="0" y="6" width="36" height="2" rx="1"></rect>
                    <rect x="0" y="12" width="36" height="2" rx="1"></rect>
                    <rect x="0" y="18" width="36" height="2" rx="1"></rect>
                    <rect x="0" y="24" width="25" height="2" rx="1"></rect>
                </g>
            </g>
        </g>
        <g id="trees-icon-label-copy" transform="translate(905.000000, 1129.000000)">
            <path d="M130.76,52.48 C131.6,52.48 132.2,52.36 132.68,52.12 L132.24,49.64 C131.92,49.72 131.76,49.72 131.56,49.72 C131.04,49.72 130.6,49.36 130.6,48.32 L130.6,23.52 L127.28,23.52 L127.28,48.08 C127.28,50.88 128.28,52.48 130.76,52.48 Z M145.04,52.48 C149.8,52.48 154.08,48.76 154.08,42.32 C154.08,35.8 149.8,32.08 145.04,32.08 C140.28,32.08 136.04,35.8 136.04,42.32 C136.04,48.76 140.28,52.48 145.04,52.48 Z M145.04,49.72 C141.72,49.72 139.48,46.76 139.48,42.32 C139.48,37.84 141.72,34.84 145.04,34.84 C148.4,34.84 150.64,37.84 150.64,42.32 C150.64,46.76 148.4,49.72 145.04,49.72 Z M165.72,60.96 C171.76,60.96 175.56,57.84 175.56,54.2 C175.56,51 173.28,49.56 168.76,49.56 L165,49.56 C162.4,49.56 161.6,48.68 161.6,47.48 C161.6,46.4 162.12,45.76 162.84,45.16 C163.72,45.6 164.76,45.84 165.72,45.84 C169.68,45.84 172.84,43.24 172.84,39.08 C172.84,37.44 172.2,36 171.28,35.12 L175.24,35.12 L175.24,32.56 L168.48,32.56 C167.76,32.28 166.8,32.08 165.72,32.08 C161.76,32.08 158.4,34.76 158.4,39 C158.4,41.32 159.64,43.2 160.92,44.24 L160.92,44.4 C159.92,45.08 158.8,46.36 158.8,48 C158.8,49.52 159.56,50.56 160.52,51.16 L160.52,51.32 C158.76,52.52 157.68,54.08 157.68,55.72 C157.68,59.08 160.96,60.96 165.72,60.96 Z M165.72,43.6 C163.48,43.6 161.6,41.84 161.6,39 C161.6,36.16 163.44,34.48 165.72,34.48 C168,34.48 169.84,36.2 169.84,39 C169.84,41.84 167.96,43.6 165.72,43.6 Z M166.2,58.64 C162.68,58.64 160.56,57.36 160.56,55.28 C160.56,54.16 161.16,53 162.56,52 C163.4,52.24 164.32,52.32 165.08,52.32 L168.4,52.32 C170.96,52.32 172.32,52.92 172.32,54.72 C172.32,56.72 169.88,58.64 166.2,58.64 Z M181.04,28.56 C182.32,28.56 183.24,27.72 183.24,26.4 C183.24,25.12 182.32,24.24 181.04,24.24 C179.76,24.24 178.84,25.12 178.84,26.4 C178.84,27.72 179.76,28.56 181.04,28.56 Z M182.68,52 L182.68,32.56 L179.36,32.56 L179.36,52 L182.68,52 Z M192.56,52 L192.56,37.92 C194.48,35.96 195.88,34.96 197.84,34.96 C200.4,34.96 201.52,36.48 201.52,40.12 L201.52,52 L204.84,52 L204.84,39.68 C204.84,34.72 203,32.08 198.88,32.08 C196.2,32.08 194.2,33.52 192.36,35.36 L192.24,35.36 L191.96,32.56 L189.24,32.56 L189.24,52 L192.56,52 Z M218.68,52.48 C223.44,52.48 227.72,48.76 227.72,42.32 C227.72,35.8 223.44,32.08 218.68,32.08 C213.92,32.08 209.68,35.8 209.68,42.32 C209.68,48.76 213.92,52.48 218.68,52.48 Z M218.68,49.72 C215.36,49.72 213.12,46.76 213.12,42.32 C213.12,37.84 215.36,34.84 218.68,34.84 C222.04,34.84 224.28,37.84 224.28,42.32 C224.28,46.76 222.04,49.72 218.68,49.72 Z M236.12,52 L236.12,37.92 C237.92,35.92 239.52,34.96 240.96,34.96 C243.44,34.96 244.56,36.48 244.56,40.12 L244.56,52 L247.88,52 L247.88,37.92 C249.68,35.92 251.24,34.96 252.76,34.96 C255.2,34.96 256.36,36.48 256.36,40.12 L256.36,52 L259.68,52 L259.68,39.68 C259.68,34.72 257.76,32.08 253.76,32.08 C251.4,32.08 249.36,33.6 247.36,35.76 C246.56,33.48 244.96,32.08 241.96,32.08 C239.64,32.08 237.64,33.52 235.92,35.36 L235.8,35.36 L235.52,32.56 L232.8,32.56 L232.8,52 L236.12,52 Z M282.2,57.04 L282.2,54.84 L263.16,54.84 L263.16,57.04 L282.2,57.04 Z M291.04,52.48 C295.64,52.48 298.16,49.84 298.16,46.68 C298.16,43.16 295.24,41.84 292.2,40.76 C289.76,39.92 288.08,39.2 288.08,37.44 C288.08,36 289.16,34.64 291.64,34.64 C293.36,34.64 294.76,35.2 296.12,36.2 L297.64,34.28 C296.12,33 294.04,32.08 291.6,32.08 C287.36,32.08 284.88,34.48 284.88,37.6 C284.88,40.8 287.68,42.2 290.6,43.24 L291.038839,43.4008652 C293.0784,44.1571556 294.96,45.0133333 294.96,46.88 C294.96,48.56 293.72,49.88 291.16,49.88 C288.76,49.88 287,49.16 285.32,47.76 L283.8,49.68 C285.6,51.44 288.2,52.48 291.04,52.48 Z M306,52 L306,46.88 L309.6,42.68 L315.28,52 L318.88,52 L311.56,40.4 L318.04,32.56 L314.32,32.56 L306.12,42.72 L306,42.72 L306,23.52 L302.72,23.52 L302.72,52 L306,52 Z M326,52.48 C326.84,52.48 327.44,52.36 327.92,52.12 L327.48,49.64 C327.16,49.72 327,49.72 326.8,49.72 C326.28,49.72 325.84,49.36 325.84,48.32 L325.84,23.52 L322.52,23.52 L322.52,48.08 C322.52,50.88 323.52,52.48 326,52.48 Z M340.56,52.48 C343.24,52.48 345.32,51.68 347,50.48 L345.84,48.36 C344.48,49.28 342.84,49.8 340.96,49.8 C337.28,49.8 334.84,47.16 334.56,43.16 L347.64,43.16 C347.76,42.52 347.8,41.92 347.8,41.2 C347.8,35.6 344.96,32.08 340,32.08 C335.56,32.08 331.28,35.96 331.28,42.28 C331.28,48.72 335.36,52.48 340.56,52.48 Z M344.84,40.6 L334.56,40.6 C334.96,36.88 337.36,34.72 340.08,34.72 C343.04,34.72 344.84,36.76 344.84,40.6 Z M357.04,52.48 C359.48,52.48 361.6,51.24 363.44,49.68 L363.56,49.68 L363.88,52 L366.6,52 L366.6,40.04 C366.6,35.24 364.56,32.08 359.84,32.08 C356.72,32.08 354,33.4 352.2,34.6 L353.48,36.84 C355,35.84 357.04,34.84 359.28,34.84 C362.44,34.84 363.24,37.2 363.28,39.64 C354.96,40.56 351.36,42.64 351.36,46.96 C351.36,50.48 353.8,52.48 357.04,52.48 Z M357.96,49.76 C356.08,49.76 354.6,48.92 354.6,46.76 C354.6,44.24 356.72,42.76 363.28,42 L363.28,47.28 C361.4,48.92 359.84,49.76 357.96,49.76 Z M376.04,52 L376.04,39.52 C377.36,36.24 379.32,35.08 380.96,35.08 C381.72,35.08 382.16,35.16 382.72,35.32 L383.44,32.48 C382.84,32.2 382.24,32.08 381.36,32.08 C379.2,32.08 377.2,33.64 375.84,36.08 L375.72,36.08 L375.44,32.56 L372.72,32.56 L372.72,52 L376.04,52 Z M389.96,52 L389.96,37.92 C391.88,35.96 393.28,34.96 395.24,34.96 C397.8,34.96 398.92,36.48 398.92,40.12 L398.92,52 L402.24,52 L402.24,39.68 C402.24,34.72 400.4,32.08 396.28,32.08 C393.6,32.08 391.6,33.52 389.76,35.36 L389.64,35.36 L389.36,32.56 L386.64,32.56 L386.64,52 L389.96,52 Z M424.76,57.04 L424.76,54.84 L405.72,54.84 L405.72,57.04 L424.76,57.04 Z M431.84,52 L431.84,37.92 C433.64,35.92 435.24,34.96 436.68,34.96 C439.16,34.96 440.28,36.48 440.28,40.12 L440.28,52 L443.6,52 L443.6,37.92 C445.4,35.92 446.96,34.96 448.48,34.96 C450.92,34.96 452.08,36.48 452.08,40.12 L452.08,52 L455.4,52 L455.4,39.68 C455.4,34.72 453.48,32.08 449.48,32.08 C447.12,32.08 445.08,33.6 443.08,35.76 C442.28,33.48 440.68,32.08 437.68,32.08 C435.36,32.08 433.36,33.52 431.64,35.36 L431.52,35.36 L431.24,32.56 L428.52,32.56 L428.52,52 L431.84,52 Z M469.52,52.48 C472.2,52.48 474.28,51.68 475.96,50.48 L474.8,48.36 C473.44,49.28 471.8,49.8 469.92,49.8 C466.24,49.8 463.8,47.16 463.52,43.16 L476.6,43.16 C476.72,42.52 476.76,41.92 476.76,41.2 C476.76,35.6 473.92,32.08 468.96,32.08 C464.52,32.08 460.24,35.96 460.24,42.28 C460.24,48.72 464.32,52.48 469.52,52.48 Z M473.8,40.6 L463.52,40.6 C463.92,36.88 466.32,34.72 469.04,34.72 C472,34.72 473.8,36.76 473.8,40.6 Z M487.64,52.48 C488.96,52.48 490.28,52.12 491.32,51.64 L490.64,49.28 C489.84,49.64 489.12,49.76 488.4,49.76 C486.2,49.76 485.4,48.4 485.4,46.04 L485.4,35.24 L490.68,35.24 L490.68,32.56 L485.4,32.56 L485.4,26.32 L482.64,26.32 L482.24,32.56 L479.2,32.76 L479.2,35.24 L482.08,35.24 L482.08,45.96 C482.08,49.84 483.48,52.48 487.64,52.48 Z M499.56,52.48 C502,52.48 504.12,51.24 505.96,49.68 L506.08,49.68 L506.4,52 L509.12,52 L509.12,40.04 C509.12,35.24 507.08,32.08 502.36,32.08 C499.24,32.08 496.52,33.4 494.72,34.6 L496,36.84 C497.52,35.84 499.56,34.84 501.8,34.84 C504.96,34.84 505.76,37.2 505.8,39.64 C497.48,40.56 493.88,42.64 493.88,46.96 C493.88,50.48 496.32,52.48 499.56,52.48 Z M500.48,49.76 C498.6,49.76 497.12,48.92 497.12,46.76 C497.12,44.24 499.24,42.76 505.8,42 L505.8,47.28 C503.92,48.92 502.36,49.76 500.48,49.76 Z M516.96,52.48 C518.28,52.48 519.36,51.44 519.36,49.96 C519.36,48.44 518.28,47.4 516.96,47.4 C515.64,47.4 514.56,48.44 514.56,49.96 C514.56,51.44 515.64,52.48 516.96,52.48 Z M528.72,52.48 C529.56,52.48 530.16,52.36 530.64,52.12 L530.2,49.64 C529.88,49.72 529.72,49.72 529.52,49.72 C529,49.72 528.56,49.36 528.56,48.32 L528.56,23.52 L525.24,23.52 L525.24,48.08 C525.24,50.88 526.24,52.48 528.72,52.48 Z M542,60.96 C548.04,60.96 551.84,57.84 551.84,54.2 C551.84,51 549.56,49.56 545.04,49.56 L541.28,49.56 C538.68,49.56 537.88,48.68 537.88,47.48 C537.88,46.4 538.4,45.76 539.12,45.16 C540,45.6 541.04,45.84 542,45.84 C545.96,45.84 549.12,43.24 549.12,39.08 C549.12,37.44 548.48,36 547.56,35.12 L551.52,35.12 L551.52,32.56 L544.76,32.56 C544.04,32.28 543.08,32.08 542,32.08 C538.04,32.08 534.68,34.76 534.68,39 C534.68,41.32 535.92,43.2 537.2,44.24 L537.2,44.4 C536.2,45.08 535.08,46.36 535.08,48 C535.08,49.52 535.84,50.56 536.8,51.16 L536.8,51.32 C535.04,52.52 533.96,54.08 533.96,55.72 C533.96,59.08 537.24,60.96 542,60.96 Z M542,43.6 C539.76,43.6 537.88,41.84 537.88,39 C537.88,36.16 539.72,34.48 542,34.48 C544.28,34.48 546.12,36.2 546.12,39 C546.12,41.84 544.24,43.6 542,43.6 Z M542.48,58.64 C538.96,58.64 536.84,57.36 536.84,55.28 C536.84,54.16 537.44,53 538.84,52 C539.68,52.24 540.6,52.32 541.36,52.32 L544.68,52.32 C547.24,52.32 548.6,52.92 548.6,54.72 C548.6,56.72 546.16,58.64 542.48,58.64 Z M558.96,60.2 L558.96,53.64 L558.88,50.24 C560.64,51.64 562.48,52.48 564.24,52.48 C568.68,52.48 572.68,48.6 572.68,42 C572.68,35.96 569.96,32.08 564.96,32.08 C562.72,32.08 560.52,33.32 558.76,34.8 L558.64,34.8 L558.36,32.56 L555.64,32.56 L555.64,60.2 L558.96,60.2 Z M563.68,49.68 C562.4,49.68 560.72,49.16 558.96,47.68 L558.96,37.52 C560.84,35.76 562.48,34.88 564.12,34.88 C567.76,34.88 569.24,37.72 569.24,42 C569.24,46.8 566.88,49.68 563.68,49.68 Z" id="loginom_sklearn_meta.lgp" fill="#333333" fill-rule="nonzero"></path>
            <g id="Group">
                <path d="M64,0 C66.209139,-4.05812251e-16 68,1.790861 68,4 L68,66 C68,68.209139 66.209139,70 64,70 L60,70 C62.209139,70 64,68.209139 64,66 L64,66 L64,4 C64,1.790861 62.209139,-4.05812251e-16 60,0 L60,0 L64,0 Z" id="Combined-Shape" fill="#FCA65C"></path>
                <path d="M72,0 C74.209139,-4.05812251e-16 76,1.790861 76,4 L76,66 C76,68.209139 74.209139,70 72,70 L68,70 C70.209139,70 72,68.209139 72,66 L72,66 L72,4 C72,1.790861 70.209139,-4.05812251e-16 68,0 L68,0 L72,0 Z" id="Combined-Shape" fill="#FCA65C"></path>
                <path d="M80,0 C82.209139,-4.05812251e-16 84,1.790861 84,4 L84,66 C84,68.209139 82.209139,70 80,70 L76,70 C78.209139,70 80,68.209139 80,66 L80,66 L80,4 C80,1.790861 78.209139,-4.05812251e-16 76,0 L76,0 L80,0 Z" id="Combined-Shape" fill="#FCA65C"></path>
                <rect id="Rectangle" fill="#73B0DE" x="0" y="0" width="60" height="70" rx="4"></rect>
                <g transform="translate(12.000000, 22.000000)" fill="#F9F9F9" id="Rectangle">
                    <rect x="0" y="0" width="36" height="2" rx="1"></rect>
                    <rect x="0" y="6" width="36" height="2" rx="1"></rect>
                    <rect x="0" y="12" width="36" height="2" rx="1"></rect>
                    <rect x="0" y="18" width="36" height="2" rx="1"></rect>
                    <rect x="0" y="24" width="25" height="2" rx="1"></rect>
                </g>
            </g>
        </g>
        <g id="Arrow/Gray-Circle/L-Shape-Copy" transform="translate(671.000000, 347.500000) rotate(-180.000000) translate(-671.000000, -347.500000) translate(621.000000, 298.000000)">
            <path d="M16,10 L90,10 L90,83" id="Path-4" stroke="#9A9FAF" stroke-width="4" stroke-dasharray="6"></path>
            <g id="Start-point" transform="translate(80.000000, 79.000000)" filter="url(#filter-3)">
                <g transform="translate(10.000000, 10.000000) rotate(90.000000) translate(-10.000000, -10.000000) ">
                    <path d="M10,0 C15.5228475,0 20,4.4771525 20,10 C20,15.5228475 15.5228475,20 10,20 C4.4771525,20 0,15.5228475 0,10 C0,4.4771525 4.4771525,0 10,0 Z M10,6 C7.790861,6 6,7.790861 6,10 C6,12.209139 7.790861,14 10,14 C12.209139,14 14,12.209139 14,10 C14,7.790861 12.209139,6 10,6 Z" id="Shape" fill="#F7931E"></path>
                </g>
            </g>
            <g id="Start-point" filter="url(#filter-4)">
                <g transform="translate(10.000000, 10.000000) rotate(90.000000) translate(-10.000000, -10.000000) ">
                    <path d="M10,0 C15.5228475,0 20,4.4771525 20,10 C20,15.5228475 15.5228475,20 10,20 C4.4771525,20 0,15.5228475 0,10 C0,4.4771525 4.4771525,0 10,0 Z M10,6 C7.790861,6 6,7.790861 6,10 C6,12.209139 7.790861,14 10,14 C12.209139,14 14,12.209139 14,10 C14,7.790861 12.209139,6 10,6 Z" id="Shape" fill="#F7931E"></path>
                </g>
            </g>
        </g>
        <g id="Arrow/Gray-Circle/L-Shape-Copy-2" transform="translate(509.000000, 211.500000) rotate(-180.000000) translate(-509.000000, -211.500000) translate(459.000000, 162.000000)">
            <path d="M16,10 L90,10 L90,83" id="Path-4" stroke="#9A9FAF" stroke-width="4" stroke-dasharray="6"></path>
            <g id="Start-point" transform="translate(80.000000, 79.000000)" filter="url(#filter-5)">
                <g transform="translate(10.000000, 10.000000) rotate(90.000000) translate(-10.000000, -10.000000) ">
                    <path d="M10,0 C15.5228475,0 20,4.4771525 20,10 C20,15.5228475 15.5228475,20 10,20 C4.4771525,20 0,15.5228475 0,10 C0,4.4771525 4.4771525,0 10,0 Z M10,6 C7.790861,6 6,7.790861 6,10 C6,12.209139 7.790861,14 10,14 C12.209139,14 14,12.209139 14,10 C14,7.790861 12.209139,6 10,6 Z" id="Shape" fill="#F7931E"></path>
                </g>
            </g>
            <g id="Start-point" filter="url(#filter-6)">
                <g transform="translate(10.000000, 10.000000) rotate(90.000000) translate(-10.000000, -10.000000) ">
                    <path d="M10,0 C15.5228475,0 20,4.4771525 20,10 C20,15.5228475 15.5228475,20 10,20 C4.4771525,20 0,15.5228475 0,10 C0,4.4771525 4.4771525,0 10,0 Z M10,6 C7.790861,6 6,7.790861 6,10 C6,12.209139 7.790861,14 10,14 C12.209139,14 14,12.209139 14,10 C14,7.790861 12.209139,6 10,6 Z" id="Shape" fill="#F7931E"></path>
                </g>
            </g>
        </g>
        <g id="Arrow/Gray-Circle/L-Shape-Copy" transform="translate(833.000000, 476.000000) rotate(-180.000000) translate(-833.000000, -476.000000) translate(783.000000, 429.000000)">
            <path d="M16,10 L90,10 L90,78" id="Path-4" stroke="#9A9FAF" stroke-width="4" stroke-dasharray="6"></path>
            <g id="Start-point" transform="translate(80.000000, 74.000000)" filter="url(#filter-7)">
                <g transform="translate(10.000000, 10.000000) rotate(90.000000) translate(-10.000000, -10.000000) ">
                    <path d="M10,0 C15.5228475,0 20,4.4771525 20,10 C20,15.5228475 15.5228475,20 10,20 C4.4771525,20 0,15.5228475 0,10 C0,4.4771525 4.4771525,0 10,0 Z M10,6 C7.790861,6 6,7.790861 6,10 C6,12.209139 7.790861,14 10,14 C12.209139,14 14,12.209139 14,10 C14,7.790861 12.209139,6 10,6 Z" id="Shape" fill="#F7931E"></path>
                </g>
            </g>
            <g id="Start-point" filter="url(#filter-8)">
                <g transform="translate(10.000000, 10.000000) rotate(90.000000) translate(-10.000000, -10.000000) ">
                    <path d="M10,0 C15.5228475,0 20,4.4771525 20,10 C20,15.5228475 15.5228475,20 10,20 C4.4771525,20 0,15.5228475 0,10 C0,4.4771525 4.4771525,0 10,0 Z M10,6 C7.790861,6 6,7.790861 6,10 C6,12.209139 7.790861,14 10,14 C12.209139,14 14,12.209139 14,10 C14,7.790861 12.209139,6 10,6 Z" id="Shape" fill="#F7931E"></path>
                </g>
            </g>
        </g>
        <g id="Arrow/Gray-Circle/L-Shape-Copy" transform="translate(838.000000, 588.000000) rotate(-180.000000) translate(-838.000000, -588.000000) translate(793.000000, 523.000000)">
            <path d="M16,10 L90,10 L90,130" id="Path-4" stroke="#9A9FAF" stroke-width="4" stroke-dasharray="6"></path>
            <g id="Start-point" filter="url(#filter-9)">
                <g transform="translate(10.000000, 10.000000) rotate(90.000000) translate(-10.000000, -10.000000) ">
                    <path d="M10,0 C15.5228475,0 20,4.4771525 20,10 C20,15.5228475 15.5228475,20 10,20 C4.4771525,20 0,15.5228475 0,10 C0,4.4771525 4.4771525,0 10,0 Z M10,6 C7.790861,6 6,7.790861 6,10 C6,12.209139 7.790861,14 10,14 C12.209139,14 14,12.209139 14,10 C14,7.790861 12.209139,6 10,6 Z" id="Shape" fill="#F7931E"></path>
                </g>
            </g>
        </g>
        <g id="Arrow/Gray-Circle/L-Shape-Copy-3" transform="translate(838.000000, 713.500000) rotate(-180.000000) translate(-838.000000, -713.500000) translate(793.000000, 644.000000)">
            <path d="M16,10 L90,10 L90,139" id="Path-4" stroke="#9A9FAF" stroke-width="4" stroke-dasharray="6"></path>
            <g id="Start-point" filter="url(#filter-10)">
                <g transform="translate(10.000000, 10.000000) rotate(90.000000) translate(-10.000000, -10.000000) ">
                    <path d="M10,0 C15.5228475,0 20,4.4771525 20,10 C20,15.5228475 15.5228475,20 10,20 C4.4771525,20 0,15.5228475 0,10 C0,4.4771525 4.4771525,0 10,0 Z M10,6 C7.790861,6 6,7.790861 6,10 C6,12.209139 7.790861,14 10,14 C12.209139,14 14,12.209139 14,10 C14,7.790861 12.209139,6 10,6 Z" id="Shape" fill="#F7931E"></path>
                </g>
            </g>
        </g>
        <g id="Arrow/Gray-Circle/L-Shape-Copy-4" transform="translate(838.000000, 843.500000) rotate(-180.000000) translate(-838.000000, -843.500000) translate(793.000000, 774.000000)">
            <path d="M16,10 L90,10 L90,139" id="Path-4" stroke="#9A9FAF" stroke-width="4" stroke-dasharray="6"></path>
            <g id="Start-point" filter="url(#filter-11)">
                <g transform="translate(10.000000, 10.000000) rotate(90.000000) translate(-10.000000, -10.000000) ">
                    <path d="M10,0 C15.5228475,0 20,4.4771525 20,10 C20,15.5228475 15.5228475,20 10,20 C4.4771525,20 0,15.5228475 0,10 C0,4.4771525 4.4771525,0 10,0 Z M10,6 C7.790861,6 6,7.790861 6,10 C6,12.209139 7.790861,14 10,14 C12.209139,14 14,12.209139 14,10 C14,7.790861 12.209139,6 10,6 Z" id="Shape" fill="#F7931E"></path>
                </g>
            </g>
        </g>
        <g id="Arrow/Gray-Circle/L-Shape-Copy-5" transform="translate(838.000000, 973.500000) rotate(-180.000000) translate(-838.000000, -973.500000) translate(793.000000, 904.000000)">
            <path d="M16,10 L90,10 L90,139" id="Path-4" stroke="#9A9FAF" stroke-width="4" stroke-dasharray="6"></path>
            <g id="Start-point" filter="url(#filter-12)">
                <g transform="translate(10.000000, 10.000000) rotate(90.000000) translate(-10.000000, -10.000000) ">
                    <path d="M10,0 C15.5228475,0 20,4.4771525 20,10 C20,15.5228475 15.5228475,20 10,20 C4.4771525,20 0,15.5228475 0,10 C0,4.4771525 4.4771525,0 10,0 Z M10,6 C7.790861,6 6,7.790861 6,10 C6,12.209139 7.790861,14 10,14 C12.209139,14 14,12.209139 14,10 C14,7.790861 12.209139,6 10,6 Z" id="Shape" fill="#F7931E"></path>
                </g>
            </g>
        </g>
        <g id="Arrow/Gray-Circle/L-Shape-Copy-6" transform="translate(838.000000, 1103.500000) rotate(-180.000000) translate(-838.000000, -1103.500000) translate(793.000000, 1034.000000)">
            <path d="M16,10 L90,10 L90,139" id="Path-4" stroke="#9A9FAF" stroke-width="4" stroke-dasharray="6"></path>
            <g id="Start-point" filter="url(#filter-13)">
                <g transform="translate(10.000000, 10.000000) rotate(90.000000) translate(-10.000000, -10.000000) ">
                    <path d="M10,0 C15.5228475,0 20,4.4771525 20,10 C20,15.5228475 15.5228475,20 10,20 C4.4771525,20 0,15.5228475 0,10 C0,4.4771525 4.4771525,0 10,0 Z M10,6 C7.790861,6 6,7.790861 6,10 C6,12.209139 7.790861,14 10,14 C12.209139,14 14,12.209139 14,10 C14,7.790861 12.209139,6 10,6 Z" id="Shape" fill="#F7931E"></path>
                </g>
            </g>
        </g>
    </g>
</svg>